<?xml version="1.0" encoding="UTF-8"?>
<!DOCTYPE svg PUBLIC "-//W3C//DTD SVG 1.1//EN" "http://www.w3.org/Graphics/SVG/1.1/DTD/svg11.dtd">
<!-- Creator: CorelDRAW X5 -->
<svg xmlns="http://www.w3.org/2000/svg" xml:space="preserve" width="60px" height="50px" style="shape-rendering:geometricPrecision; text-rendering:geometricPrecision; image-rendering:optimizeQuality; fill-rule:evenodd; clip-rule:evenodd"
viewBox="0 0 60 50"
 xmlns:xlink="http://www.w3.org/1999/xlink"
 version="1.1">
 <defs>
  <style type="text/css">
   <![CDATA[
    .fil0 {fill:black}
   ]]>
  </style>
 </defs>
 <g id="Слой_x0020_1">
  <metadata id="CorelCorpID_0Corel-Layer"/>
  <g id="_272557192">
   <path class="fil0" d="M54 3l-48 0c-3,0 -5,2 -5,5l0 13c0,1 0,1 1,1l51 0c1,0 1,0 1,-1 0,-1 0,-1 -1,-1l-50 0 0 -6 50 0c1,0 1,0 1,-1 0,-1 0,-1 -1,-1l-50 0 0 -4c0,-2 1,-3 3,-3l48 0c2,0 3,1 3,3l0 33c0,2 -1,3 -3,3l-48 0c-2,0 -3,-1 -3,-3l0 -15c0,-1 0,-1 -1,-1 -1,0 -1,0 -1,1l0 15c0,3 2,5 5,5l48 0c3,0 5,-2 5,-5l0 -33c0,-3 -2,-5 -5,-5l0 0zm-44 28l8 0c1,0 1,0 1,-1 0,-1 0,-1 -1,-1l-8 0c-1,0 -1,0 -1,1 0,1 0,1 1,1zm0 6l8 0c1,0 1,0 1,-1 0,-1 0,-1 -1,-1l-8 0c-1,0 -1,0 -1,1 0,1 0,1 1,1l0 0z"/>
  </g>
 </g>
</svg>
