<?xml version="1.0" encoding="utf-8"?>
<!-- Generator: Adobe Illustrator 24.1.1, SVG Export Plug-In . SVG Version: 6.00 Build 0)  -->
<svg version="1.1" id="Layer_1" xmlns="http://www.w3.org/2000/svg" xmlns:xlink="http://www.w3.org/1999/xlink" x="0px" y="0px"
	 viewBox="0 0 1920 1081" style="enable-background:new 0 0 1920 1081;" xml:space="preserve">
<style type="text/css">
	.st0{font-family:'MullerRegularItalic';}
	.st1{font-size:261.3255px;}
	.st2{font-family:'MullerBoldItalic';}
	.st3{font-size:175.2642px;}
</style>
<text transform="matrix(0.9971 0 0 1 468.8291 708.7861)" class="st0 st1">ЗОЛОТАЯ</text>
<text transform="matrix(0.9971 0 0 1 736.668 905.5762)" class="st2 st3">АНТИЛОПА</text>
<path d="M167.34,767.68c51.54,98.87,140.11,168.95,247.45,182.25c93.56,11.59,173.53-23.39,238.66-88.1
	c26.37-26.2,8.09-71-29.07-71.45c-77.42-0.95-162.61-24.35-207.8-71.51c-69.77-72.81-40.33-235.04,6.19-320.86
	c3.54-6.53,13.44-16.82,15.87-15.69c41.59,19.37,81.95,41.42,123.78,60.18c13.58,6.09,37.77,11.5,44.39,4.75
	c9.9-10.1,16.19-34.8,10.49-46.95c-14.51-30.95-37.52-57.78-55.08-87.48c-8.37-14.17-40.88-32.12,1.28-46.27
	c2.53-0.85,5.94-5.78,5.35-7.71c-0.89-2.91-4.71-6.49-7.7-6.93c-38.49-5.72-53.44-33.49-69.77-65.26
	c-29.68-57.74-93.51-106.29-125.97-132.21c34.91,42.99,77.17,95.45,85.41,140.3c-2.23-2-152.65-133.78-155.71-134.35
	c1.74,2.75,75.39,110.39,109.31,162.22c2.08,3.18,0.75,20.16-16.32,22.62c-17.13,2.47-82.42,38.33-28.52,52.2
	c0.41,0.11-96.76,98.83-133.2,180.97c-24.38,54.95-44.7,115.06-52.09,175.8C168.42,702.31,169.13,738.31,167.34,767.68z"/>
</svg>
