<!-- Generated by IcoMoon.io -->
<svg version="1.1" xmlns="http://www.w3.org/2000/svg" width="43" height="32" viewBox="0 0 43 32">
<title>Payment-02</title>
<path fill="none" stroke-linejoin="miter" stroke-linecap="butt" stroke-miterlimit="10" stroke-width="1" stroke="#000" d="M8.069 4.199h26.52c1.228 0 2.223 0.995 2.223 2.223v18.087c0 1.228-0.995 2.223-2.223 2.223h-26.52c-1.228 0-2.223-0.995-2.223-2.223v-18.087c0-1.228 0.995-2.223 2.223-2.223z"></path>
<path d="M33.044 10.733c-0.037-0.211-0.215-0.339-0.473-0.341-0.079 0-0.159 0.007-0.236 0-0.152-0.016-0.192 0.035-0.191 0.155 0.007 0.592 0.005 1.184 0 1.775 0 0.309-0.304 0.627-0.667 0.708-1.128 0.248-2.255 0.499-3.384 0.745-0.115 0.026-0.248 0.041-0.383 0.041-0.002 0-0.005 0-0.007 0h0c-0.065-0.004-0.121-0.036-0.158-0.084l-0-0.001c-0.016-0.028 0.033-0.095 0.073-0.129 0.053-0.041 0.114-0.074 0.18-0.097l0.004-0.001c0.207-0.074 0.417-0.141 0.626-0.211 0.838-0.279 1.677-0.553 2.513-0.834 0.377-0.127 0.581-0.379 0.587-0.697 0.019-1.029 0.009-2.057 0.005-3.087 0-0.163-0.085-0.299-0.279-0.369-0.223-0.080-0.42-0.016-0.614 0.076q-1.775 0.846-3.555 1.692c-0.349 0.166-0.543 0.407-0.542 0.75 0.004 0.973 0 1.944 0 2.916-0 0.003-0 0.006-0 0.010 0 0.048 0.007 0.094 0.021 0.138l-0.001-0.003c0.117 0.333 0.42 0.52 0.838 0.52 0.835 0 1.671 0 2.506 0s1.661 0 2.493 0c0.011 0.001 0.025 0.001 0.038 0.001 0.168 0 0.322-0.056 0.446-0.151l-0.002 0.001c0.175-0.141 0.166-0.321 0.166-0.499q0-1.421 0-2.843c0.001-0.018 0.002-0.038 0.002-0.059 0-0.042-0.003-0.084-0.008-0.125l0.001 0.005zM29.577 10.429c0.084-0.218 0.267-0.355 0.547-0.39 0.016-0.003 0.035-0.005 0.055-0.005 0.157 0 0.288 0.112 0.318 0.261l0 0.002c0.040 0.257-0.281 0.556-0.6 0.555-0.266-0.002-0.414-0.185-0.322-0.425z"></path>
<path d="M13.761 11.247v1.238h-0.927v-1.242h-0.485v3.067h0.499v-1.376h0.915v1.373h0.493v-3.060z"></path>
<path d="M26.462 19.342c-0.145-0.725-0.697-1.166-1.577-1.239-0.347-0.027-0.7-0.005-1.074-0.005v-1.933h-0.753v5.37c0.557 0 1.095 0.032 1.626-0.009 0.795-0.059 1.4-0.376 1.687-1.025 0.165-0.375 0.169-0.769 0.091-1.16zM25.297 20.156c-0.139 0.593-0.747 0.873-1.48 0.699 0-0.659 0-1.307 0.007-1.957 0-0.043 0.075-0.113 0.129-0.123 0.733-0.156 1.222 0.088 1.349 0.699 0.022 0.099 0.034 0.213 0.034 0.33 0 0.125-0.014 0.246-0.041 0.362l0.002-0.011z"></path>
<path d="M11.168 9.595h-0.8c-0.012-0-0.027-0.001-0.041-0.001-0.348 0-0.665 0.13-0.905 0.344l0.001-0.001c-0.88 0.779-0.649 2.259 0.522 2.575l-1.195 1.8c0.167 0 0.295-0.009 0.421 0 0.017 0.003 0.036 0.005 0.056 0.005 0.118 0 0.221-0.067 0.271-0.165l0.001-0.002c0.293-0.476 0.605-0.945 0.909-1.417 0.14-0.217 0.157-0.223 0.489-0.159v1.721h0.561v-4.467c0.001-0.233 0-0.233-0.29-0.233zM10.882 12.081c-0.382-0.003-0.78 0.091-1.071-0.195-0.333-0.327-0.428-0.705-0.305-1.119 0.011-0.033 0.027-0.067 0.040-0.096 0.248-0.57 0.575-0.728 1.333-0.633z"></path>
<path d="M25.041 13.867c-0.832 0.277-1.406 0.027-1.556-0.698-0.028-0.125-0.044-0.268-0.044-0.414 0-0.253 0.048-0.496 0.134-0.719l-0.005 0.013c0.185-0.5 0.553-0.649 1.164-0.483 0.001 0 0.003 0 0.004 0 0.015 0 0.030-0.002 0.044-0.006l-0.001 0 0.192-0.241c-0.505-0.333-1.2-0.252-1.573 0.167-0.291 0.323-0.405 0.697-0.441 1.089-0.042 0.451 0.014 0.888 0.312 1.284 0.312 0.414 0.853 0.608 1.409 0.478 0.393-0.093 0.437-0.133 0.36-0.47z"></path>
<path d="M12.305 20.903v-4.733h-2.827c-0.039 0.803-0.058 1.593-0.122 2.382-0.053 0.753-0.24 1.449-0.536 2.084l0.015-0.036c-0.103 0.218-0.225 0.361-0.537 0.309-0.021 0.002-0.041 0.008-0.058 0.018l0.001-0v1.737h0.845v-1.147h3.057v1.149h0.82v-1.763zM11.389 20.897h-1.851c0.158-0.395 0.351-0.784 0.467-1.187 0.235-0.812 0.233-1.644 0.239-2.475 0-0.128 0-0.257 0-0.4h1.145c0 1.345 0 2.693 0 4.062z"></path>
<path d="M19.85 13.908c-0.143 0.041-0.281 0.092-0.425 0.121-0.4 0.081-0.689-0.008-0.842-0.261-0.179-0.297-0.171-0.615-0.16-0.948h1.517c0.033-0.499-0.028-0.966-0.344-1.391-0.277-0.373-0.758-0.433-1.139-0.126-0.14 0.113-0.257 0.249-0.346 0.403l-0.004 0.007c-0.18 0.303-0.287 0.668-0.287 1.057 0 0.091 0.006 0.18 0.017 0.268l-0.001-0.010c0.038 0.309 0.119 0.59 0.238 0.85l-0.007-0.018c0.174 0.39 0.576 0.589 1.041 0.539 0.247-0.031 0.47-0.087 0.682-0.167l-0.020 0.007c0.238-0.081 0.244-0.157 0.081-0.331zM18.675 11.661c0.171-0.212 0.453-0.206 0.604 0.017 0.169 0.247 0.19 0.519 0.183 0.806h-1.057c0.017-0.3 0.074-0.577 0.27-0.823z"></path>
<path d="M21.641 16.267c-0.033-0.039-0.075-0.099-0.116-0.101-0.249-0.010-0.499-0.006-0.775-0.006v2.207h-1.617v-2.2h-0.861v5.39h0.873v-0.211c0-0.629 0-1.255 0-1.883 0-0.346 0-0.346 0.414-0.346h1.2v2.442h0.874c0.004-0.059 0.010-0.11 0.010-0.159v-5.065c0-0.021 0.011-0.049-0.002-0.067z"></path>
<path d="M21.729 12.445c0.302-0.348 0.591-0.703 0.885-1.055 0.036-0.043 0.067-0.089 0.118-0.154-0.030 0.002-0.066 0.003-0.102 0.003s-0.071-0.001-0.107-0.003l0.005 0c-0.027-0.006-0.057-0.009-0.088-0.009-0.156 0-0.294 0.080-0.373 0.202l-0.001 0.002c-0.257 0.339-0.544 0.661-0.82 0.99-0.031 0.037-0.070 0.067-0.145 0.142v-1.319h-0.479v2.991h0.486c0-0.355-0.007-0.703 0.005-1.049 0.005-0.119 0.060-0.239 0.091-0.357 0.069 0.040 0.126 0.094 0.168 0.159l0.001 0.002c0.25 0.375 0.497 0.751 0.749 1.124 0.033 0.049 0.089 0.116 0.143 0.123 0.085 0.007 0.184 0.010 0.284 0.010 0.064 0 0.128-0.002 0.192-0.005l-0.009 0c-0.351-0.533-0.679-1.039-1.014-1.542-0.065-0.094-0.070-0.162 0.012-0.255z"></path>
<path d="M33.594 16.15c-0.141-0.005-0.203 0.035-0.253 0.143-0.339 0.745-0.685 1.486-1.029 2.229-0.151 0.325-0.307 0.649-0.459 0.975l-0.041-0.007v-3.326h-0.873v5.4h0.857q0.817-1.763 1.638-3.55v3.545h0.985v-5.404c-0.285 0-0.551 0.008-0.824-0.004z"></path>
<path d="M17.077 20.786c-0.267 0.083-0.509 0.177-0.764 0.229-0.827 0.169-1.367-0.059-1.603-0.659-0.182-0.461-0.175-0.937-0.183-1.439h2.699c-0.037-0.418-0.041-0.825-0.117-1.22-0.096-0.494-0.287-0.968-0.681-1.367-0.349-0.352-0.769-0.455-1.293-0.312-0.544 0.147-0.876 0.489-1.099 0.895-0.655 1.189-0.711 2.415-0.209 3.65 0.155 0.401 0.449 0.719 0.822 0.902l0.010 0.004c0.712 0.351 1.867 0.229 2.586-0.277-0.057-0.14-0.115-0.283-0.166-0.407zM14.933 16.963c0.127-0.179 0.297-0.325 0.581-0.312 0.241 0.009 0.447 0.146 0.553 0.346l0.002 0.004c0.247 0.424 0.288 0.879 0.286 1.35h-1.854c0.047-0.499 0.135-0.967 0.433-1.387z"></path>
<path d="M17.070 13.899v-2.657h-1.603c0 0.2 0.007 0.378 0 0.557-0.027 0.624-0.049 1.249-0.309 1.846-0.067 0.147-0.112 0.305-0.361 0.272v0.965h0.462v-0.627h1.733v0.623h0.437v-0.966zM16.564 13.899h-1.079c0.467-0.724 0.405-1.503 0.439-2.279h0.64z"></path>
<path d="M27.267 16.162c0 1.807 0 3.6 0 5.395h0.8v-4.853h2.433v-0.543z"></path>
</svg>
