<!-- Generated by IcoMoon.io -->
<svg version="1.1" xmlns="http://www.w3.org/2000/svg" width="43" height="32" viewBox="0 0 43 32">
<title>Payment-01</title>
<path fill="none" stroke-linejoin="miter" stroke-linecap="butt" stroke-miterlimit="10" stroke-width="1" stroke="#000" d="M7.936 4.865h26.52c1.228 0 2.223 0.995 2.223 2.223v18.087c0 1.228-0.995 2.223-2.223 2.223h-26.52c-1.228 0-2.223-0.995-2.223-2.223v-18.087c0-1.228 0.995-2.223 2.223-2.223z"></path>
<path d="M14.233 10.81l-0.72 3.73h-0.049l-0.98-3.73h-0.627l-0.917 3.73h-0.050l-0.789-3.73h-0.79l1.141 4.999h0.762l0.931-3.519h0.049l0.959 3.519h0.762l1.143-4.999h-0.825z"></path>
<path d="M28.893 19.209l-0.8 2.597h-0.042l-0.902-2.596h-0.776l1.353 3.527c-0.169 0.522-0.467 0.902-0.944 0.902v0.577c0.809 0 1.239-0.507 1.592-1.481l1.275-3.525z"></path>
<path d="M18.285 13.922c0-1.153-0.541-1.721-1.423-1.721-1.057 0-1.6 0.774-1.6 1.846 0 1.115 0.487 1.847 1.671 1.847 0.007 0 0.014 0 0.022 0 0.451 0 0.873-0.121 1.236-0.332l-0.012 0.006v-0.533c-0.387 0.232-0.74 0.365-1.12 0.365-0.725 0-1.071-0.373-1.071-1.22h2.297zM16 13.707c0.077-0.703 0.409-1.035 0.839-1.035 0.381 0 0.74 0.294 0.775 1.035z"></path>
<path d="M26.151 20.813c0-1.152-0.542-1.721-1.422-1.721-1.059 0-1.6 0.774-1.6 1.846 0 1.115 0.486 1.847 1.667 1.847 0.006 0 0.013 0 0.020 0 0.451 0 0.874-0.121 1.238-0.332l-0.012 0.006v-0.533c-0.386 0.23-0.739 0.365-1.119 0.365-0.725 0-1.073-0.372-1.073-1.22h2.298zM23.867 20.6c0.079-0.704 0.411-1.036 0.841-1.036 0.379 0 0.74 0.295 0.775 1.036z"></path>
<path d="M30.228 13.457l0.838-0.757 0.757 0.837-0.838 0.757-0.757-0.837z"></path>
<path d="M28.28 14.389l1.117-1.006 1.006 1.118-1.117 1.006-1.006-1.118z"></path>
<path d="M32.020 12.937l0.558-0.503 0.503 0.558-0.558 0.503-0.503-0.558z"></path>
<path d="M28.738 10.003l0.839-0.755 0.755 0.839-0.839 0.755-0.755-0.839z"></path>
<path d="M31.306 11.269l0.557-0.503 0.504 0.557-0.557 0.503-0.504-0.557z"></path>
<path d="M27.486 12.453l1.118-1.007 1.006 1.118-1.118 1.007-1.006-1.118z"></path>
<path d="M26.687 10.548l1.118-1.006 1.006 1.118-1.118 1.006-1.006-1.118z"></path>
<path d="M29.511 11.689l0.837-0.755 0.757 0.838-0.837 0.755-0.757-0.838z"></path>
<path d="M30.587 9.611l0.558-0.503 0.503 0.558-0.558 0.503-0.503-0.558z"></path>
<path d="M30.967 15.151l0.838-0.756 0.756 0.839-0.838 0.756-0.756-0.839z"></path>
<path d="M30.333 15.346l-1.092 1.007-1.841-2.053 0.513-0.451-1.295-1.449 0.516-0.452-1.311-1.445 2.044-1.84 0.65 0.711 1.097-0.979 0.653 0.671 0.432-0.387q-0.144-0.084-0.291-0.154c-0.603-0.301-1.313-0.477-2.064-0.477-2.596 0-4.701 2.105-4.701 4.701s2.105 4.701 4.701 4.701c0.853 0 1.653-0.227 2.343-0.625l-0.023 0.012c0.236-0.134 0.438-0.27 0.629-0.419l-0.011 0.009z"></path>
<path d="M20.613 12.2c-0.351 0.012-0.678 0.107-0.963 0.266l0.011-0.006v-2.009l-0.733 0.176v4.92c0.4 0.205 0.871 0.331 1.37 0.345l0.005 0c1.023 0 1.657-0.643 1.657-1.961 0.001-1.126-0.471-1.732-1.345-1.732zM20.302 15.4c-0.015 0.001-0.034 0.001-0.052 0.001-0.215 0-0.419-0.041-0.607-0.117l0.011 0.004v-2.306c0.283-0.155 0.487-0.232 0.768-0.232 0.472 0 0.8 0.289 0.8 1.183-0.003 1.141-0.398 1.467-0.92 1.467z"></path>
<path d="M21.31 19.090c-0.811 0-1.48 0.333-1.8 0.521v3.087h0.733v-2.791c0.218-0.127 0.579-0.254 0.859-0.254 0.363 0 0.636 0.099 0.636 0.655v2.39h0.733v-2.551c0.001-0.725-0.317-1.056-1.162-1.058z"></path>
<path d="M13.979 17.701l-1.507 3.94h-0.036l-1.579-3.94h-0.852v4.999h0.634v-3.54h0.063l1.439 3.54h0.451l1.438-3.625h0.063v3.625h0.761v-4.999h-0.874z"></path>
<path d="M17.235 19.092c-0.93 0-1.607 0.613-1.607 1.846 0 1.205 0.643 1.847 1.607 1.847s1.608-0.643 1.608-1.847c0-1.234-0.677-1.846-1.608-1.846zM17.235 22.292c-0.5 0-0.867-0.386-0.867-1.353 0-0.952 0.4-1.353 0.867-1.353 0.48 0 0.867 0.4 0.867 1.353 0.001 0.965-0.369 1.351-0.867 1.351z"></path>
</svg>
