<!-- Generated by IcoMoon.io -->
<svg version="1.1" xmlns="http://www.w3.org/2000/svg" width="43" height="32" viewBox="0 0 43 32">
<title>Payment-03</title>
<path fill="none" stroke-linejoin="miter" stroke-linecap="butt" stroke-miterlimit="10" stroke-width="1" stroke="#000" d="M7.936 4.732h26.52c1.228 0 2.223 0.995 2.223 2.223v18.087c0 1.228-0.995 2.223-2.223 2.223h-26.52c-1.228 0-2.223-0.995-2.223-2.223v-18.087c0-1.228 0.995-2.223 2.223-2.223z"></path>
<path d="M23.918 12.91c-0.062-0.311-0.221-0.578-0.443-0.775l-0.001-0.001c-0.077-0.075-0.165-0.14-0.261-0.191l-0.006-0.003c-0.162-0.093-0.356-0.149-0.563-0.149-0.013 0-0.026 0-0.038 0.001l0.002-0c0.092-0.047 0.229-0.049 0.37-0.047 0.119 0.017 0.225 0.043 0.327 0.078l-0.013-0.004c0.084 0.046 0.167 0.092 0.249 0.139 0.203-0.607 0.125-1.437-0.101-1.971-0.212-0.55-0.538-1.015-0.952-1.384l-0.004-0.003c-0.416-0.393-0.941-0.675-1.525-0.796l-0.021-0.004c-0.146-0.030-0.314-0.047-0.486-0.047-0.188 0-0.372 0.020-0.549 0.059l0.017-0.003c-0.301 0.081-0.563 0.211-0.793 0.384l0.006-0.004c-0.207 0.184-0.409 0.375-0.546 0.629-0.039 0.053-0.075 0.114-0.107 0.178l-0.003 0.008c-0.029 0.067-0.061 0.133-0.093 0.2-0.050 0.127-0.095 0.279-0.126 0.435l-0.003 0.018c-0.043 0.188-0.067 0.405-0.067 0.627 0 0.148 0.011 0.293 0.032 0.436l-0.002-0.016c0.044 0.343 0.132 0.653 0.258 0.944l-0.009-0.022c0.067 0.13 0.129 0.267 0.203 0.389 0.083 0.131 0.162 0.243 0.247 0.35l-0.006-0.008c0.183 0.204 0.386 0.384 0.609 0.539l0.011 0.007c0.494 0.339 1.099 0.553 1.751 0.582l0.007 0c0.015-0.031-0.021-0.091-0.028-0.129s-0.015-0.096-0.028-0.139c-0.006-0.047-0.009-0.102-0.009-0.157s0.003-0.11 0.010-0.163l-0.001 0.006c0.029 0.007 0.029 0.045 0.047 0.067s0.021 0.046 0.046 0.055c0.027 0.050 0.055 0.092 0.085 0.132l-0.002-0.003c0.070 0.072 0.124 0.159 0.213 0.213 0.152 0.125 0.326 0.231 0.514 0.31l0.014 0.005c0.183 0.097 0.43 0.133 0.675 0.167s0.485 0.076 0.712 0.133c0.226 0.066 0.423 0.151 0.606 0.256l-0.013-0.007c0.1 0.056 0.184 0.111 0.265 0.171l-0.006-0.004c0.046 0.028 0.085 0.058 0.121 0.093l-0-0c0.049 0.019 0.070 0.067 0.12 0.083 0.147 0.133 0.28 0.276 0.402 0.427l0.006 0.007c0.055 0.077 0.107 0.164 0.152 0.256l0.005 0.011c0.034 0.037 0.044 0.098 0.074 0.139 0 0.053 0.053 0.115 0.009 0.157-0.067 0.010-0.055-0.063-0.083-0.093-0.025-0.032-0.047-0.068-0.065-0.107l-0.001-0.003c-0.109-0.114-0.205-0.239-0.324-0.343-0.11-0.103-0.231-0.197-0.36-0.281l-0.010-0.006c-0.259-0.183-0.562-0.326-0.888-0.412l-0.020-0.004c-0.27-0.077-0.581-0.122-0.901-0.122-0.096 0-0.191 0.004-0.286 0.012l0.012-0.001c-0.203 0.022-0.388 0.065-0.564 0.125l0.018-0.005c-0.154 0.036-0.346 0.069-0.542 0.090l-0.023 0.002c-0.757 0.047-1.6-0.133-2.165-0.407-0.309-0.141-0.575-0.312-0.813-0.516l0.005 0.004c-0.126-0.1-0.238-0.206-0.34-0.321l-0.002-0.003c-0.102-0.112-0.194-0.236-0.272-0.369l-0.006-0.010c-0.099-0.123-0.158-0.287-0.241-0.426-0.055-0.165-0.133-0.307-0.167-0.49-0.054-0.162-0.094-0.351-0.111-0.546l-0.001-0.009c0-0.056-0.028-0.163-0.027-0.25 0-0.008 0.010-0.015 0.009-0.028-0.005-0.079-0.023-0.2 0-0.267 0.002-0.208 0.026-0.409 0.070-0.602l-0.004 0.019c0.038-0.2 0.086-0.374 0.146-0.542l-0.008 0.024c0.055-0.167 0.128-0.316 0.194-0.472 0.045-0.067 0.079-0.144 0.121-0.213s0.088-0.127 0.121-0.204c0.035-0.020 0.041-0.067 0.073-0.092 0.015-0.041 0.053-0.059 0.067-0.102 0.030-0.026 0.054-0.057 0.073-0.091l0.001-0.002c0.030-0.025 0.055-0.056 0.073-0.091l0.001-0.002c0.11-0.109 0.209-0.229 0.323-0.333s0.243-0.2 0.361-0.305c0.075-0.036 0.129-0.093 0.203-0.133 0.057-0.051 0.139-0.077 0.195-0.129 0.154-0.067 0.285-0.159 0.453-0.213 0.132-0.062 0.292-0.122 0.456-0.17l0.025-0.006c0.311-0.089 0.668-0.14 1.037-0.14 0.042 0 0.084 0.001 0.125 0.002l-0.006-0c0.016 0 0.024-0.016 0.028 0 0.737 0.013 1.418 0.243 1.984 0.628l-0.013-0.008c0.513 0.347 0.921 0.812 1.191 1.358l0.009 0.020c0.223 0.457 0.354 0.995 0.354 1.564 0 0.209-0.018 0.414-0.052 0.614l0.003-0.021c-0.070 0.374-0.177 0.707-0.32 1.020l0.011-0.027c-0.081 0.166-0.158 0.303-0.242 0.434l0.011-0.018c-0.040 0.074-0.083 0.137-0.131 0.196l0.002-0.002c-0.018 0.036-0.041 0.066-0.067 0.093l0-0c-0.012 0.017-0.024 0.033-0.038 0.047l0-0c-0.004 0.008-0.008 0.017-0.019 0.019 0.005 0.015-0.006 0.018-0.007 0.008z"></path>
<path d="M23.623 13.151c-0.109-0.043-0.127-0.175-0.176-0.277-0.006-0.019-0.009-0.042-0.009-0.065s0.003-0.046 0.010-0.067l-0 0.002c0.007 0 0.009-0.009 0.019-0.009 0.027-0.017 0.053 0.005 0.092 0.019 0.052 0.065 0.091 0.142 0.111 0.227l0.001 0.004c0.002 0.073 0.007 0.149-0.046 0.167z"></path>
<path d="M22.809 12.993c0-0.011 0.009-0.005 0.009 0 0.164 0.021 0.239 0.133 0.25 0.305-0.009 0.087-0.073 0.158-0.156 0.176l-0.001 0c-0.221 0.004-0.347-0.2-0.267-0.407 0.043-0.036 0.074-0.085 0.165-0.074z"></path>
<path d="M14.845 22.943c0.067 0.256 0.193 0.476 0.361 0.655l-0.001-0.001c0.155 0.183 0.342 0.334 0.553 0.446l0.010 0.005c0.201 0.13 0.432 0.237 0.678 0.31l0.019 0.005c0.117 0.051 0.254 0.091 0.397 0.112l0.009 0.001c0.107 0.059 0.241 0.091 0.249 0.248-0.006 0.189-0.133 0.258-0.293 0.293-0.161-0.034-0.361-0.029-0.497-0.091-0.341-0.041-0.615-0.15-0.901-0.247-0.545-0.214-1.011-0.52-1.401-0.903l0.001 0.001c-0.079-0.133-0.186-0.234-0.27-0.361s-0.14-0.28-0.226-0.405c-0.667-0.089-1.127-0.391-1.533-0.745-0.394-0.433-0.673-0.977-0.786-1.58l-0.003-0.020c-0.142-0.646-0.099-1.451 0.067-2.074 0.369-1.208 1.147-2.009 2.615-2.119 0.388 0.002 0.76 0.068 1.106 0.189l-0.024-0.007c0.341 0.136 0.633 0.326 0.88 0.564l-0.001-0.001c0.017 0.012 0.032 0.027 0.044 0.044l0 0.001c0.051 0.077 0.178 0.179 0.248 0.271 0.013 0.017 0.008 0.047 0.023 0.067 0.027 0.037 0.067 0.055 0.090 0.090 0.015 0.023 0.010 0.047 0.023 0.067s0.041 0.067 0.067 0.113c0.010 0.017 0.038 0.032 0.044 0.045 0.039 0.074 0.056 0.165 0.091 0.248s0.085 0.163 0.113 0.247c0.082 0.253 0.145 0.551 0.178 0.859l0.002 0.020c0.088 0.908-0.092 1.719-0.428 2.322-0.159 0.311-0.369 0.573-0.622 0.786l-0.004 0.003c-0.237 0.238-0.563 0.385-0.878 0.543zM13.763 17.262c-0.197 0.015-0.315 0.107-0.474 0.158-0.105 0.097-0.236 0.169-0.315 0.293-0.133 0.072-0.165 0.24-0.27 0.337-0.091 0.212-0.169 0.461-0.222 0.72l-0.004 0.025c-0.054 0.269-0.086 0.581-0.090 0.899l-0 0.003c-0.005 0.775 0.16 1.547 0.473 2.006 0.182 0.225 0.408 0.407 0.665 0.535l0.012 0.005c0.157 0.015 0.281 0.067 0.451 0.067 0.094-0.034 0.255 0 0.315-0.067 0.139 0.011 0.173-0.083 0.293-0.091 0.063-0.066 0.138-0.119 0.222-0.156l0.004-0.002c0.081-0.092 0.16-0.185 0.248-0.27 0.045-0.067 0.067-0.156 0.133-0.204 0.392-0.749 0.437-2.125 0.18-3-0.089-0.301-0.22-0.563-0.389-0.796l0.005 0.008c-0.166-0.171-0.36-0.314-0.574-0.423l-0.012-0.006c-0.181-0.037-0.35-0.086-0.586-0.067-0.013 0-0.027 0-0.023 0.021z"></path>
<path d="M18.519 16.631c0.354 0.014 0.766-0.029 1.081 0.023 0.071 0.111 0.043 0.238 0.045 0.36 0.025 1.654 0 3.426 0 5.117 0 0.133 0.003 0.273 0 0.406-0.003 0.113 0.025 0.235-0.045 0.339-0.159 0.039-0.382 0.023-0.586 0.023s-0.423 0.028-0.563-0.046c-0.038-2-0.038-4.155 0-6.153 0.012-0.032 0.036-0.056 0.067-0.068l0.001-0z"></path>
<path d="M21.225 16.631h1.059c0.095 0.13 0.125 0.326 0.158 0.519 0.318 1.214 0.634 2.431 0.923 3.673 0.067 0.009 0.047-0.073 0.067-0.113 0.031-0.029 0.015-0.107 0.045-0.133 0.013-0.101 0.073-0.153 0.067-0.271 0.080-0.152 0.104-0.362 0.179-0.519 0.093-0.365 0.213-0.705 0.317-1.059 0.099-0.367 0.235-0.697 0.316-1.083 0.149-0.308 0.184-0.733 0.361-1.014h0.449c0.167 0.301 0.223 0.711 0.367 1.034 0.090 0.367 0.219 0.697 0.315 1.059 0.223 0.701 0.452 1.397 0.654 2.119 0.090-0.133 0.091-0.36 0.157-0.519 0.036-0.201 0.082-0.375 0.141-0.543l-0.007 0.025c0.175-0.713 0.338-1.435 0.542-2.119 0.076-0.359 0.149-0.723 0.267-1.036 0.139-0.018 0.299-0.028 0.462-0.028s0.323 0.010 0.481 0.030l-0.019-0.002c0.023 0.267-0.101 0.552-0.179 0.788-0.043 0.29-0.15 0.511-0.204 0.789-0.161 0.508-0.285 1.053-0.451 1.555-0.127 0.541-0.298 1.040-0.429 1.579-0.086 0.25-0.15 0.525-0.225 0.788-0.088 0.243-0.118 0.544-0.249 0.744h-0.63c-0.161-0.283-0.218-0.667-0.361-0.969-0.314-0.995-0.667-1.951-0.969-2.953-0.107 0.111-0.104 0.333-0.18 0.473-0.054 0.205-0.108 0.37-0.17 0.531l0.012-0.035c-0.085 0.344-0.218 0.639-0.293 0.992-0.101 0.255-0.209 0.585-0.299 0.923l-0.016 0.069c-0.133 0.295-0.18 0.676-0.338 0.947-0.167 0.050-0.427 0.009-0.631 0.022-0.159-0.179-0.175-0.503-0.272-0.744-0.075-0.253-0.128-0.533-0.225-0.767-0.12-0.549-0.304-1.034-0.429-1.577-0.163-0.504-0.302-1.035-0.451-1.555-0.081-0.249-0.145-0.517-0.225-0.766-0.038-0.271-0.221-0.515-0.158-0.812 0.019-0.019 0.042-0.034 0.068-0.042l0.001-0z"></path>
<path d="M30.129 16.631c0.353 0.014 0.765-0.029 1.082 0.023 0.077 0.237 0.045 0.489 0.045 0.743v4.733c0 0.257 0.033 0.507-0.045 0.745-0.181 0.019-0.392 0.030-0.605 0.030-0.104 0-0.208-0.003-0.311-0.008l0.015 0.001c-0.086-0.005-0.191 0.020-0.248-0.046-0.077-0.234-0.045-0.486-0.045-0.744v-4.687c0-0.285-0.027-0.557 0.045-0.745 0.018-0.020 0.041-0.036 0.066-0.044l0.001-0z"></path>
</svg>
