<svg xmlns="http://www.w3.org/2000/svg" xmlns:xlink="http://www.w3.org/1999/xlink" viewBox="0 0 913 828"><defs><style>.cls-1{fill:#00bcad;}.cls-2{fill:#42210b;opacity:0.2;}.cls-3{fill:#007e82;}.cls-4{fill:#feffff;}.cls-5{opacity:0.3;fill:url(#linear-gradient);}.cls-6{font-size:48.6px;}.cls-23,.cls-28,.cls-29,.cls-30,.cls-6{fill:#fff;}.cls-23,.cls-6{font-family:MullerMediumItalic, Muller;}.cls-7{fill:url(#linear-gradient-2);}.cls-8{fill:#d6d6d6;}.cls-9{fill:#006366;}.cls-10{fill:none;stroke:#b3b3b3;stroke-miterlimit:10;}.cls-11{fill:#a6a6a6;}.cls-12{fill:#3c3c3b;}.cls-13{fill:#f38a08;}.cls-14{fill:#dc7601;}.cls-15{fill:#d76800;}.cls-16{fill:#ffe67a;}.cls-17{fill:#ffd93b;}.cls-18{fill:#fff2b4;}.cls-19{fill:#fdde54;}.cls-20{fill:#fff3a9;}.cls-21{fill:#ffe162;}.cls-22{fill:#bf5d00;}.cls-23,.cls-30{font-size:40.07px;}.cls-24{letter-spacing:-0.02em;}.cls-25{letter-spacing:0em;}.cls-26{letter-spacing:-0.04em;}.cls-27{letter-spacing:-0.08em;}.cls-28{font-size:26.88px;}.cls-28,.cls-30{font-family:MullerBoldItalic, Muller;}.cls-29{opacity:0.7;}.cls-30{letter-spacing:0em;}.cls-31{letter-spacing:0em;}</style><linearGradient id="linear-gradient" x1="178.49" y1="210.19" x2="296.21" y2="372.33" gradientTransform="translate(-99.33 39.56) rotate(-14.21)" gradientUnits="userSpaceOnUse"><stop offset="0" stop-color="#f2f2f2"/><stop offset="0.15" stop-color="#f2f2f2" stop-opacity="0.97"/><stop offset="0.37" stop-color="#f2f2f2" stop-opacity="0.88"/><stop offset="0.64" stop-color="#f2f2f2" stop-opacity="0.73"/><stop offset="0.96" stop-color="#f2f2f2" stop-opacity="0.53"/><stop offset="1" stop-color="#f2f2f2" stop-opacity="0.5"/></linearGradient><linearGradient id="linear-gradient-2" x1="463.86" y1="532.63" x2="463.86" y2="105.81" gradientUnits="userSpaceOnUse"><stop offset="0" stop-color="#ffd854"/><stop offset="1" stop-color="#ff9154"/></linearGradient></defs><g id="Layer_3" data-name="Layer 3"><circle class="cls-1" cx="475" cy="431" r="309"/></g><g id="Layer_2" data-name="Layer 2"><path class="cls-2" d="M663.58,579c-15.88-3.1-54.07-6.48-96.05-9.52,0-.46,0-.93,0-1.41V453.37H207.44L223.5,564.31a13.92,13.92,0,0,0,15.94,11.55l70.54-13c9.48-1.51,19,8.11,23.81,16.42,5.83,10.12,20,19.46,30,19.46H487.66c9.91,5.56,18.66,10.86,26.26,16,23.19,15.81,92.75,32.67,138.06,15.81S706.78,587.43,663.58,579Z"/><rect class="cls-3" x="181.61" y="179.29" width="249.88" height="365.54" rx="13.92" transform="translate(-79.51 86.35) rotate(-14.21)"/><rect class="cls-4" x="200.92" y="359.03" width="36.49" height="36.49" rx="2.78" transform="translate(-85.92 65.36) rotate(-14.21)"/><path d="M210.42,374.41h0L208,376.57l-.82-1.5,2.94-2.69,1.78-.44,3.94,15.57-2,.51Z"/><path d="M227.75,367.93l.35,1.39-3.18,15.9-2.18.56,3.26-15.5v0l-7.62,1.93-.44-1.75Z"/><rect class="cls-4" x="243.79" y="348.17" width="36.49" height="36.49" rx="2.78" transform="translate(-81.94 75.55) rotate(-14.21)"/><path d="M264.86,360.42l-5.94,1.5.41,4.16a7.8,7.8,0,0,1,1.25-.42,6.72,6.72,0,0,1,3.56,0,4.66,4.66,0,0,1,3.25,3.44c.77,3-1.08,5.93-4.45,6.78a7.92,7.92,0,0,1-4.13,0l.12-1.74a7.15,7.15,0,0,0,3.57,0,3.54,3.54,0,0,0,2.82-4.3c-.51-2-2.24-3.11-5.36-2.32a16.51,16.51,0,0,0-2.11.71l-.89-7.73,7.45-1.89Z"/><rect class="cls-4" x="286.66" y="337.32" width="36.49" height="36.49" rx="2.78" transform="translate(-77.97 85.75) rotate(-14.21)"/><path d="M310.27,355.14c1.34,5.3.11,8.72-3.34,9.59-3,.77-5.83-1.56-7.18-6.7s.2-8.67,3.37-9.47S309,350.18,310.27,355.14Zm-8.4,2.38c1,4.05,2.85,6,4.77,5.55,2.16-.55,2.55-3.32,1.54-7.3s-2.58-6.08-4.76-5.53C301.57,350.71,300.79,353.28,301.87,357.52Z"/><rect class="cls-4" x="329.53" y="326.46" width="36.49" height="36.49" rx="2.78" transform="translate(-73.99 95.94) rotate(-14.21)"/><path d="M338.47,356.46l-.32-1.29,1.28-2c3-4.79,4.3-7.29,3.72-9.64a2.88,2.88,0,0,0-3.86-2.28,5.43,5.43,0,0,0-3,2.17l-1.05-1.31a7.1,7.1,0,0,1,4-2.7,4.49,4.49,0,0,1,5.89,3.33c.73,2.87-.77,5.73-3.22,9.72l-.95,1.49v0l7-1.76.44,1.72Z"/><path d="M349.6,349.44c-.49-1.95.33-3.63,2-4.95l0-.1a4,4,0,0,1-3.38-2.84c-.61-2.45,1.06-4.68,3.79-5.37,3-.77,5,.74,5.51,2.68a4.11,4.11,0,0,1-1.64,4.3v.07a4.45,4.45,0,0,1,4.16,3.23c.69,2.73-1.18,5.12-4.17,5.88C352.63,353.15,350.18,351.71,349.6,349.44Zm8.36-2.22c-.47-1.87-2-2.47-4.28-2.52a3.48,3.48,0,0,0-2,3.93,3,3,0,0,0,3.86,2.16A2.91,2.91,0,0,0,358,347.22Zm-7.77-6.32c.37,1.56,1.78,2.1,3.7,2.12a3.13,3.13,0,0,0,1.63-3.42,2.49,2.49,0,0,0-3.28-1.88A2.56,2.56,0,0,0,350.19,340.9Z"/><rect class="cls-4" x="372.4" y="315.6" width="36.49" height="36.49" rx="2.78" transform="translate(-70.01 106.13) rotate(-14.21)"/><path d="M394.79,342.2,393.71,338l-7.24,1.83-.35-1.39,4.43-11.7,2.28-.58,2.46,9.7,2.18-.55.41,1.63-2.18.55,1.08,4.25Zm-1.49-5.87L392,331.1c-.21-.81-.39-1.63-.55-2.46h-.08c-.24,1.06-.46,1.83-.71,2.66l-2.46,6.28v.05Z"/><rect class="cls-4" x="212.21" y="403.6" width="36.49" height="36.49" rx="2.78" transform="translate(-96.52 69.5) rotate(-14.21)"/><path d="M220.56,433.76l-.33-1.3,1.28-2c3-4.79,4.3-7.29,3.72-9.65a2.88,2.88,0,0,0-3.86-2.28,5.49,5.49,0,0,0-3,2.18l-1.05-1.32a7,7,0,0,1,4-2.69,4.5,4.5,0,0,1,5.89,3.32c.73,2.88-.77,5.73-3.22,9.72l-.95,1.49v0l7-1.77.44,1.73Z"/><path d="M232.85,430.64l-.33-1.29,1.28-2c3-4.79,4.3-7.28,3.73-9.64a2.88,2.88,0,0,0-3.87-2.28,5.53,5.53,0,0,0-3,2.18l-1-1.32a7.07,7.07,0,0,1,4-2.7,4.51,4.51,0,0,1,5.9,3.33c.73,2.88-.77,5.73-3.23,9.72l-.95,1.49v0l7-1.76.44,1.72Z"/><rect class="cls-4" x="255.08" y="392.74" width="36.49" height="36.49" rx="2.78" transform="translate(-92.54 79.69) rotate(-14.21)"/><path d="M276.51,403l.36,1.39-3.19,15.9-2.18.55,3.27-15.49,0,0-7.62,1.93-.44-1.75Z"/><rect class="cls-4" x="297.95" y="381.89" width="36.49" height="36.49" rx="2.78" transform="translate(-88.56 89.88) rotate(-14.21)"/><path d="M307.45,397.26l-.05,0-2.34,2.14-.81-1.5,2.94-2.68,1.77-.45,4,15.58-2,.5Z"/><path d="M327,398.34c1.34,5.3.12,8.72-3.33,9.59-3.05.77-5.83-1.56-7.18-6.69s.2-8.68,3.36-9.48S325.7,393.38,327,398.34Zm-8.4,2.38c1,4,2.86,6,4.77,5.55,2.16-.54,2.56-3.32,1.55-7.3s-2.59-6.08-4.77-5.52C318.26,393.91,317.48,396.48,318.55,400.72Z"/><rect class="cls-4" x="318.52" y="283.18" width="36.49" height="36.49" rx="2.78" transform="translate(-63.7 91.91) rotate(-14.21)"/><path d="M327.37,310.63a7.17,7.17,0,0,0,3.7.11c2.71-.69,3.11-2.62,2.76-3.91-.58-2.18-2.78-2.61-4.81-2.1l-1.18.3-.4-1.58,1.17-.3c1.54-.39,3.28-1.67,2.81-3.52-.31-1.24-1.38-2.14-3.33-1.65a5.87,5.87,0,0,0-2.85,1.82l-.94-1.4a7.69,7.69,0,0,1,3.77-2.23c3.07-.77,4.95.69,5.42,2.58a4,4,0,0,1-2,4.43v.05a4.13,4.13,0,0,1,4.48,3.09c.63,2.5-.78,5.17-4.49,6.11a7.81,7.81,0,0,1-4.33-.05Z"/><path d="M348.11,299.49c1.35,5.29.12,8.71-3.33,9.59-3,.77-5.83-1.56-7.18-6.7s.2-8.67,3.37-9.47S346.86,294.53,348.11,299.49Zm-8.4,2.38c1,4.05,2.86,6,4.78,5.55,2.15-.55,2.55-3.33,1.54-7.3s-2.59-6.08-4.77-5.53C339.42,295.06,338.64,297.63,339.71,301.87Z"/><rect class="cls-4" x="361.39" y="272.32" width="36.49" height="36.49" rx="2.78" transform="translate(-59.72 102.1) rotate(-14.21)"/><path d="M383.05,284.41l-5.94,1.51.41,4.15a7.94,7.94,0,0,1,1.25-.41,6.66,6.66,0,0,1,3.57,0,4.65,4.65,0,0,1,3.24,3.43c.77,3.05-1.07,5.94-4.45,6.79a7.92,7.92,0,0,1-4.13,0l.12-1.74a7.3,7.3,0,0,0,3.58,0,3.55,3.55,0,0,0,2.81-4.31c-.51-2-2.24-3.1-5.36-2.31a15.54,15.54,0,0,0-2.11.71l-.89-7.73,7.45-1.89Z"/><rect class="cls-4" x="340.82" y="371.03" width="36.49" height="36.49" rx="2.78" transform="translate(-84.59 100.08) rotate(-14.21)"/><path d="M349.68,398.48a7.26,7.26,0,0,0,3.7.11c2.71-.69,3.11-2.63,2.76-3.92-.58-2.17-2.78-2.61-4.82-2.09l-1.17.3-.4-1.59,1.17-.29c1.53-.39,3.27-1.67,2.81-3.52-.32-1.25-1.39-2.15-3.33-1.66a5.9,5.9,0,0,0-2.85,1.82l-.94-1.39a7.54,7.54,0,0,1,3.77-2.23c3.06-.78,4.94.68,5.42,2.58a4,4,0,0,1-2,4.42l0,.05a4.13,4.13,0,0,1,4.48,3.1c.63,2.49-.78,5.17-4.5,6.11a8,8,0,0,1-4.32,0Z"/><path d="M370.42,387.33c1.34,5.3.12,8.72-3.34,9.59-3,.77-5.82-1.56-7.17-6.69s.2-8.68,3.36-9.48S369.16,382.37,370.42,387.33Zm-8.4,2.39c1,4,2.85,6,4.77,5.54,2.16-.54,2.55-3.32,1.55-7.3-1-3.83-2.59-6.08-4.77-5.52C361.72,382.9,361,385.47,362,389.72Z"/><rect class="cls-4" x="383.69" y="360.17" width="36.49" height="36.49" rx="2.78" transform="translate(-80.61 110.27) rotate(-14.21)"/><path d="M405.36,372.26l-5.95,1.51.42,4.15a9.22,9.22,0,0,1,1.24-.42,6.86,6.86,0,0,1,3.57,0,4.67,4.67,0,0,1,3.25,3.44c.77,3-1.08,5.93-4.46,6.79a7.86,7.86,0,0,1-4.12,0l.12-1.74a7.23,7.23,0,0,0,3.57,0,3.54,3.54,0,0,0,2.81-4.31c-.51-2-2.24-3.11-5.35-2.32a17.11,17.11,0,0,0-2.12.72l-.88-7.73,7.45-1.89Z"/><rect class="cls-4" x="223.5" y="448.17" width="36.49" height="36.49" rx="2.78" transform="translate(-107.12 73.63) rotate(-14.21)"/><path d="M239.61,474.78a8.83,8.83,0,0,0,1.68-.51,6.11,6.11,0,0,0,2.88-2.33,7,7,0,0,0,1-4.67l-.07,0a4.83,4.83,0,0,1-9.05-1,5.5,5.5,0,0,1,3.92-6.88c3.18-.81,5.81,1.28,6.81,5.26a10.13,10.13,0,0,1-.83,8,8,8,0,0,1-4,3.23,10.15,10.15,0,0,1-1.91.61Zm-1.5-9.14a3.12,3.12,0,0,0,3.86,2.55,3.63,3.63,0,0,0,2.63-2.43,1.67,1.67,0,0,0,0-.82c-.68-2.66-2.2-4.44-4.4-3.88C238.42,461.51,237.55,463.41,238.11,465.64Z"/><rect class="cls-4" x="266.37" y="437.31" width="36.49" height="36.49" rx="2.78" transform="translate(-103.14 83.82) rotate(-14.21)"/><path d="M275.87,452.69h-.05l-2.34,2.15-.81-1.5,2.94-2.69,1.77-.44,3.95,15.57-2,.51Z"/><path d="M293.55,462.7l-1.07-4.25-7.24,1.84-.35-1.39,4.43-11.71,2.27-.57,2.46,9.7,2.18-.55.42,1.63-2.18.55,1.07,4.24Zm-1.49-5.87-1.32-5.23c-.21-.81-.39-1.63-.55-2.46h-.07c-.25,1.06-.46,1.83-.71,2.65L287,458.07v.05Z"/><rect class="cls-4" x="309.24" y="426.45" width="36.49" height="36.49" rx="2.78" transform="translate(-99.16 94.02) rotate(-14.21)"/><path d="M324.39,452.31a7.28,7.28,0,0,0,3.7.11c2.71-.69,3.12-2.63,2.76-3.92-.57-2.17-2.78-2.61-4.81-2.09l-1.18.3-.4-1.58,1.18-.3c1.53-.39,3.27-1.67,2.8-3.52-.31-1.24-1.38-2.15-3.32-1.66a5.87,5.87,0,0,0-2.86,1.83l-.94-1.4a7.64,7.64,0,0,1,3.77-2.23c3.07-.78,5,.69,5.43,2.58a4,4,0,0,1-2,4.42v0a4.16,4.16,0,0,1,4.49,3.1c.63,2.49-.78,5.17-4.5,6.11a7.86,7.86,0,0,1-4.32-.05Z"/><rect class="cls-4" x="352.11" y="415.6" width="36.49" height="36.49" rx="2.78" transform="translate(-95.18 104.21) rotate(-14.21)"/><path d="M367.59,443.94l-1.07-4.24-7.24,1.83-.35-1.39,4.43-11.7,2.28-.58,2.46,9.71,2.18-.55.41,1.62-2.18.56,1.07,4.24Zm-1.48-5.87-1.33-5.22c-.2-.82-.38-1.64-.54-2.47h-.08c-.24,1.05-.46,1.82-.71,2.65L361,439.32v0Z"/><path d="M379.17,426.32l-5.94,1.51.41,4.15a9,9,0,0,1,1.25-.42,6.86,6.86,0,0,1,3.57,0A4.66,4.66,0,0,1,381.7,435c.77,3-1.07,5.93-4.45,6.79a7.79,7.79,0,0,1-4.13,0l.12-1.74a7.28,7.28,0,0,0,3.58,0,3.55,3.55,0,0,0,2.81-4.31c-.51-2-2.24-3.11-5.36-2.32a16.89,16.89,0,0,0-2.11.72l-.89-7.73,7.45-1.89Z"/><rect class="cls-4" x="394.98" y="404.74" width="36.49" height="36.49" rx="2.78" transform="translate(-91.2 114.4) rotate(-14.21)"/><path d="M410.82,433l-.33-1.3,1.28-2c3-4.78,4.3-7.28,3.73-9.64a2.89,2.89,0,0,0-3.87-2.28,5.53,5.53,0,0,0-3,2.18l-1-1.32a7.07,7.07,0,0,1,4-2.7,4.51,4.51,0,0,1,5.9,3.33c.72,2.88-.77,5.73-3.23,9.72l-1,1.49v0l7-1.77.44,1.73Z"/><rect class="cls-4" x="189.92" y="316.03" width="36.49" height="36.49" rx="2.78" transform="translate(-75.7 61.34) rotate(-14.21)"/><path d="M205,329.79l-6,1.5.42,4.16a9.22,9.22,0,0,1,1.24-.42,6.86,6.86,0,0,1,3.57,0,4.65,4.65,0,0,1,3.24,3.44c.78,3-1.07,5.93-4.45,6.79a7.86,7.86,0,0,1-4.12,0l.12-1.74a7.14,7.14,0,0,0,3.57,0,3.52,3.52,0,0,0,2.81-4.3c-.51-2-2.24-3.11-5.35-2.32a17.3,17.3,0,0,0-2.12.71l-.88-7.73,7.45-1.88Z"/><path d="M217.28,326.67l-5.94,1.51.41,4.15a9.14,9.14,0,0,1,1.25-.41,6.72,6.72,0,0,1,3.56,0,4.67,4.67,0,0,1,3.25,3.44c.77,3.05-1.07,5.94-4.45,6.79a7.92,7.92,0,0,1-4.13,0l.12-1.74a7.3,7.3,0,0,0,3.58,0,3.55,3.55,0,0,0,2.81-4.31c-.51-2-2.24-3.1-5.36-2.31a15.08,15.08,0,0,0-2.11.71l-.89-7.73,7.45-1.89Z"/><rect class="cls-4" x="232.79" y="305.17" width="36.49" height="36.49" rx="2.78" transform="translate(-71.72 71.53) rotate(-14.21)"/><path d="M249.18,318.8h-.05L246.8,321l-.82-1.5,3-2.69,1.77-.45,3.94,15.58-2,.51Z"/><rect class="cls-4" x="275.66" y="294.31" width="36.49" height="36.49" rx="2.78" transform="translate(-67.74 81.73) rotate(-14.21)"/><path d="M291.77,320.92a8.83,8.83,0,0,0,1.68-.51,6.16,6.16,0,0,0,2.88-2.33,7.08,7.08,0,0,0,1-4.67l-.07,0A4.7,4.7,0,0,1,294,316a4.65,4.65,0,0,1-5.78-3.61,5.5,5.5,0,0,1,3.92-6.88c3.18-.81,5.8,1.28,6.81,5.26a10.13,10.13,0,0,1-.83,8,8.07,8.07,0,0,1-4,3.23,9.46,9.46,0,0,1-1.91.61Zm-1.5-9.14a3.12,3.12,0,0,0,3.86,2.55,3.6,3.6,0,0,0,2.62-2.43,1.54,1.54,0,0,0,0-.82c-.68-2.66-2.2-4.44-4.41-3.88C290.58,307.65,289.71,309.55,290.27,311.78Z"/><rect class="cls-4" x="234.79" y="492.74" width="36.49" height="36.49" rx="2.78" transform="translate(-117.71 77.77) rotate(-14.21)"/><path d="M249.86,506.5,243.92,508l.41,4.15a9,9,0,0,1,1.25-.42,6.82,6.82,0,0,1,3.56,0,4.67,4.67,0,0,1,3.25,3.44c.77,3-1.08,5.93-4.46,6.79a7.75,7.75,0,0,1-4.12,0l.12-1.73a7.26,7.26,0,0,0,3.57,0,3.54,3.54,0,0,0,2.81-4.31c-.51-2-2.24-3.11-5.35-2.32a17.11,17.11,0,0,0-2.12.72l-.88-7.73,7.45-1.89Z"/><path d="M262.15,503.39l-5.94,1.5.41,4.16a9.44,9.44,0,0,1,1.25-.42,6.86,6.86,0,0,1,3.57,0,4.66,4.66,0,0,1,3.24,3.44c.77,3-1.07,5.93-4.45,6.79a7.9,7.9,0,0,1-4.13,0l.12-1.74a7.18,7.18,0,0,0,3.58,0,3.53,3.53,0,0,0,2.81-4.3c-.51-2-2.24-3.11-5.36-2.32a17.07,17.07,0,0,0-2.11.71l-.89-7.73,7.45-1.88Z"/><rect class="cls-4" x="277.66" y="481.88" width="36.49" height="36.49" rx="2.78" transform="translate(-113.74 87.96) rotate(-14.21)"/><path d="M294.05,495.51h0l-2.34,2.15-.82-1.5,2.95-2.68,1.77-.45,3.94,15.58-2,.51Z"/><rect class="cls-4" x="320.53" y="471.03" width="36.49" height="36.49" rx="2.78" transform="translate(-109.76 98.15) rotate(-14.21)"/><path d="M336.64,497.63a9.47,9.47,0,0,0,1.68-.5,6.07,6.07,0,0,0,2.88-2.34,7.07,7.07,0,0,0,1-4.67l-.07,0a4.83,4.83,0,0,1-9.05-1,5.51,5.51,0,0,1,3.92-6.88c3.18-.81,5.8,1.29,6.81,5.26a10.13,10.13,0,0,1-.83,8,8,8,0,0,1-4,3.23,10.3,10.3,0,0,1-1.91.62Zm-1.5-9.13A3.11,3.11,0,0,0,339,491a3.58,3.58,0,0,0,2.62-2.43,1.54,1.54,0,0,0,0-.82c-.68-2.66-2.2-4.44-4.41-3.88C335.45,484.37,334.58,486.27,335.14,488.5Z"/><path class="cls-4" d="M403.13,488.92a2.78,2.78,0,0,1-2,3.38l-30,7.6a2.79,2.79,0,0,1-3.38-2l-7.59-30a2.78,2.78,0,0,1,2-3.38l30-7.59a2.79,2.79,0,0,1,3.39,2Z"/><path d="M372.34,490.17l-.33-1.29,1.28-2c3-4.79,4.3-7.29,3.73-9.64a2.89,2.89,0,0,0-3.87-2.29,5.53,5.53,0,0,0-3,2.18l-1-1.31a7,7,0,0,1,4-2.7,4.5,4.5,0,0,1,5.89,3.33c.73,2.87-.77,5.72-3.23,9.71l-.95,1.49,0,.05,7-1.77.44,1.73Z"/><path d="M384.63,487.06l-.32-1.3,1.27-2c3-4.78,4.3-7.28,3.73-9.64a2.88,2.88,0,0,0-3.87-2.28,5.5,5.5,0,0,0-3,2.18l-1.05-1.32a7.1,7.1,0,0,1,4-2.7,4.5,4.5,0,0,1,5.89,3.33c.73,2.88-.77,5.73-3.22,9.72l-.95,1.49v.05l7-1.77.44,1.73Z"/><rect class="cls-4" x="406.27" y="449.31" width="36.49" height="36.49" rx="2.78" transform="translate(-101.8 118.54) rotate(-14.21)"/><path d="M416,476.53a7.23,7.23,0,0,0,3.69.11c2.71-.69,3.12-2.63,2.76-3.91-.57-2.18-2.77-2.62-4.81-2.1l-1.18.3-.4-1.58,1.18-.3c1.53-.39,3.27-1.67,2.8-3.52-.31-1.24-1.38-2.15-3.32-1.66a5.94,5.94,0,0,0-2.86,1.83l-.94-1.4a7.78,7.78,0,0,1,3.77-2.23c3.07-.78,4.95.69,5.43,2.58a4.05,4.05,0,0,1-2,4.43v0a4.16,4.16,0,0,1,4.49,3.1c.63,2.49-.79,5.17-4.5,6.11a7.86,7.86,0,0,1-4.32-.05Z"/><path d="M436.77,465.39c1.34,5.29.11,8.71-3.34,9.59-3,.77-5.82-1.56-7.18-6.7s.2-8.67,3.37-9.47S435.51,460.42,436.77,465.39Zm-8.4,2.38c1,4.05,2.85,6,4.77,5.55,2.16-.55,2.55-3.33,1.54-7.31-1-3.83-2.58-6.07-4.76-5.52C428.07,461,427.29,463.53,428.37,467.77Z"/><path class="cls-5" d="M392.5,192.51l-6.29-24.81a13.92,13.92,0,0,0-16.91-10.08L154.05,212.14A13.92,13.92,0,0,0,144,229.05L220.61,531.6Z"/><text class="cls-6" transform="translate(202.57 274.64) rotate(-14.25)">BINGO</text><rect class="cls-7" x="349.52" y="105.81" width="228.69" height="426.82"/><path class="cls-8" d="M586.54,125.53c0-17-14.23-30.71-31.78-30.71H377.54c-17.55,0-31.78,13.75-31.78,30.71V548.05c0,17,14.23,30.71,31.78,30.71H554.76c17.55,0,31.78-13.75,31.78-30.71Zm-230.09,400v-391H578.7v390Z"/><path class="cls-9" d="M591.88,212.34V125.88c0-19.82-16.62-35.88-37.12-35.88H377.54c-20.5,0-37.12,16.06-37.12,35.88v29.37a2.36,2.36,0,0,0-2.38,2.31v14.07a2.36,2.36,0,0,0,2.38,2.31v17.34a2.66,2.66,0,0,0-2.38,2.6V223.6a2.66,2.66,0,0,0,2.38,2.6v10A2.67,2.67,0,0,0,338,238.8v29.71a2.67,2.67,0,0,0,2.38,2.61V548.39c0,19.82,16.62,35.88,37.12,35.88H554.76c20.5,0,37.12-16.06,37.12-35.88V271.12a2.67,2.67,0,0,0,2.38-2.61V214.94A2.66,2.66,0,0,0,591.88,212.34Zm-5.7,335.71c0,17-14.23,30.71-31.78,30.71H377.19c-17.56,0-31.79-13.75-31.79-30.71V125.53c0-17,14.23-30.71,31.79-30.71H554.4c17.55,0,31.78,13.75,31.78,30.71Z"/><ellipse class="cls-10" cx="466.15" cy="552.47" rx="18.67" ry="18.04"/><ellipse class="cls-11" cx="466.15" cy="552.47" rx="14.94" ry="14.44"/><path class="cls-12" d="M482.18,118.5a3.12,3.12,0,1,0,3.12-3A3.07,3.07,0,0,0,482.18,118.5Z"/><path class="cls-12" d="M446,120.21h27.78a1.77,1.77,0,1,0,0-3.45H446a1.77,1.77,0,1,0,0,3.45Z"/><path class="cls-13" d="M527.52,606.71a8.73,8.73,0,0,0,.54.7l.14.18c.24.27.49.55.76.82l0,0,.19.18c.22.22.46.44.71.66l.32.27.71.57.35.27.93.66.22.15,0,0,.21.13c.44.29.9.57,1.39.85l.56.32,1.3.69.36.19.29.14c.38.19.77.37,1.17.55l.72.33c.47.21,1,.41,1.44.61l.51.21.09,0c.69.27,1.4.54,2.15.81s1.51.53,2.3.79l.09,0c.28.1.57.18.85.27l1.65.5,1,.3,1.27.35.28.07,1.24.31,1.49.37,1.3.3,1.12.25.38.08,1.69.34,1.35.26c.58.12,1.18.22,1.78.32l1.09.2.22,0c1.15.19,2.3.37,3.47.54l.55.08c1,.13,2,.27,3,.39l.35,0,.57.06c1.39.16,2.79.31,4.21.45l.64.06c1.55.14,3.11.26,4.69.37l.49,0,.71,0c.94,0,1.89.11,2.84.15l1.2.06c1.33.06,2.67.11,4,.14h.21q1.9,0,3.84.06h4.14l1.35,0c1,0,2.11,0,3.16-.07l.93,0c1.36,0,2.71-.11,4.06-.18l1-.05c1-.06,2.07-.12,3.11-.2l1.33-.09,2.87-.24.82-.07.34,0c1.57-.15,3.12-.31,4.66-.49l.94-.12c1.4-.17,2.79-.35,4.17-.55l.49-.06.22,0c1.21-.18,2.41-.36,3.61-.57l.46-.08c1-.17,2.06-.36,3.07-.55l.31-.06,1.13-.22,1.75-.36L638,619l1.68-.38.44-.1,1.42-.35.91-.22c.92-.24,1.84-.48,2.74-.74l.59-.16,2.37-.71.21-.07,2.5-.81.23-.09.86-.3,1.74-.64.92-.37.85-.33.63-.27,1-.43c.45-.2.89-.4,1.32-.61s.61-.28.9-.43l.41-.19.69-.38c.36-.18.72-.37,1.06-.56l1-.56,1-.58.32-.2,1.1-.75.08-.06c.46-.33.89-.66,1.31-1l.27-.22c.36-.31.71-.61,1-.92l.1-.11.28-.29c.27-.27.53-.54.77-.82l.3-.36c.22-.27.43-.55.62-.82l.21-.3a10.53,10.53,0,0,0,.64-1.11l.09-.21a8.69,8.69,0,0,0,.37-.91c0-.12.08-.24.11-.36a7.91,7.91,0,0,0,.19-.81c0-.11.05-.23.06-.34a8.56,8.56,0,0,0,.08-1.12l-.42-20.91a7.09,7.09,0,0,1-.07,1.12c0,.11,0,.22-.06.34a7.91,7.91,0,0,1-.19.81c0,.12-.07.24-.11.36a8.69,8.69,0,0,1-.37.91l-.09.21a12.64,12.64,0,0,1-.64,1.11l-.21.3c-.19.27-.4.55-.62.82l-.31.36c-.23.28-.49.55-.76.82l-.28.29c-.36.34-.74.69-1.15,1l-.27.22c-.41.33-.84.67-1.31,1l-.08.06c-.44.32-.93.63-1.42.94-.3.2-.63.39-.95.58l-.13.08-.11-6-.11-5.19h0a7.18,7.18,0,0,0-.06-.79,1.84,1.84,0,0,1,0-.25c0-.18-.07-.35-.12-.53l-.09-.3c-.06-.16-.11-.33-.18-.49l-.13-.31q-.11-.24-.24-.48c0-.1-.1-.2-.16-.3s-.21-.33-.32-.5l-.18-.27c-.15-.2-.31-.41-.48-.61l-.12-.15q-.32-.36-.66-.72l-.05,0-.16-.15c-.2-.2-.4-.39-.62-.58l-.28-.24-.62-.49-.31-.24-.81-.57-.19-.13,0,0-.18-.11c-.39-.25-.79-.5-1.22-.75l-.49-.28-1.13-.6-.32-.17-.25-.12-1-.48-.63-.29-1.26-.53-.44-.18-.09,0c-.6-.24-1.22-.47-1.87-.7s-1.32-.47-2-.69l-.18-.06-.76-.23-1.54-.47-.91-.25-.9-.25-.58-.15-1-.26-1.49-.36-1.07-.24-.57-.13-.88-.18-1.32-.26c-.48-.1-1-.19-1.45-.27l-1.35-.25-.5-.08-.82-.13-1.85-.29-1.33-.19-1.88-.25-.76-.1-.46,0c-1.34-.16-2.68-.31-4-.43l-.37,0c-1.26-.12-2.54-.22-3.82-.31l-.56,0-.63,0-2.32-.13-1.25-.06c-.93,0-1.85-.08-2.78-.1l-.81,0c-1.2,0-2.41,0-3.61-.06h-4.65l-2.74.06-.88,0-3.47.15-.63,0-2.89.18-1,.07-3,.25-.38,0h-.08c-1.39.13-2.77.28-4.14.44l-.77.09c-1.33.16-2.66.33-4,.52l-.29,0-.62.1-2.17.34-1,.16-2.4.44-.51.09-.13,0c-.91.18-1.81.36-2.69.55l-.29.06-2.35.53-.17,0-1.37.34-.77.19-2.28.62-.52.14c-.71.21-1.4.41-2.08.63l-.17.05c-.75.23-1.47.47-2.18.71l-.21.08-.73.26c-.52.18-1,.37-1.53.56l-.8.32-.74.29-.55.24-.87.37c-.39.17-.77.35-1.14.53l-.79.37-.36.17-.6.33-.92.49-.85.5-.83.5-.28.17-.34.25c-.4.26-.77.53-1.13.8l-.53.4c-.37.3-.71.59-1,.89-.08.08-.19.16-.28.24l-.09.09-.24.25c-.24.24-.46.48-.67.72l-.26.31a7.22,7.22,0,0,0-.54.73l-.19.25c-.21.32-.39.65-.56,1l-.08.18c-.12.27-.23.54-.32.8s-.07.21-.1.32-.12.47-.16.7,0,.2-.05.3a5.39,5.39,0,0,0-.07,1h0l.22,11.15-.56-.3-.57-.32c-.48-.28-.94-.57-1.39-.85l-.25-.16-.22-.15-.93-.66-.35-.27c-.25-.19-.48-.38-.71-.57l-.33-.27-.71-.66-.18-.18c-.29-.28-.56-.57-.81-.86l-.14-.18a8.88,8.88,0,0,1-.55-.7l-.21-.31c-.12-.19-.25-.38-.36-.57l-.19-.35a5.6,5.6,0,0,1-.27-.55,3.68,3.68,0,0,1-.15-.35c-.08-.19-.14-.37-.2-.56s-.08-.23-.11-.34-.09-.41-.13-.61l-.06-.29c0-.3-.07-.6-.08-.9l.42,20.91a6.82,6.82,0,0,0,.07.9l.06.29c0,.2.08.41.13.61s.07.23.11.34.13.37.2.56l.15.35.27.55.19.35c.12.19.24.38.37.57A3.37,3.37,0,0,0,527.52,606.71Zm124-18.23.89.42-.34.19-1,.5-.78.37-1.15.53-.86.37c-.42.18-.85.36-1.29.53l-.81.32-1.52.56-.74.26c-.77.27-1.56.53-2.39.79l-.18.06c-.84.26-1.7.51-2.59.76s-1.58.44-2.39.65l-.8.19c-.53.14-1.07.27-1.61.39l-1.48.34-1,.22-.08-4.45.85-.26-.16-8.36.45.08,1.46.27c.44.09.88.17,1.31.27l1.45.3,1.07.25,1.49.35,1,.26,1.48.4.91.26,1.54.46.76.23c.74.25,1.47.49,2.19.75s1.26.47,1.87.71l.52.21,1.26.53Zm-107,2.37,1-.5.79-.37,1.15-.53.86-.37c.42-.18.85-.36,1.29-.53l.8-.32,1.53-.56c.25-.09.48-.18.74-.26.77-.27,1.56-.53,2.38-.79l.19-.06c.84-.26,1.69-.51,2.58-.76s1.51-.42,2.28-.61l.76-.19,1.55-.38.53-.12.08,3.86-.74.22h0l.16,8.12-.2,0-1.48-.3-1.32-.29-1.13-.26-1.3-.32-1.08-.27-1.37-.38-.9-.25-1.45-.44-.73-.23c-.72-.23-1.41-.47-2.09-.71l-1.88-.71-.52-.22c-.43-.17-.85-.35-1.26-.53-.22-.09-.42-.19-.63-.29l-.9-.42Z"/><path class="cls-14" d="M557.34,619.05l1.58.31,1.52.27,1.56.27c1.13.19,2.28.37,3.44.54l.55.07,3,.4.36,0,.55.06c1.39.16,2.78.31,4.2.45l.63.06c1.54.14,3.1.26,4.66.37l.49,0,.71,0,2.83.16,1.19.06c1.33.06,2.66.1,4,.14h.22c1.26,0,2.54,0,3.82.06h4.12l1.34,0,3.15-.07.93,0c1.35,0,2.69-.1,4-.17l1-.06c1,0,2.06-.12,3.09-.19l1.33-.09,2.85-.24.82-.07.35,0c1.55-.15,3.09-.31,4.63-.49l.93-.12c1.39-.16,2.78-.35,4.15-.54l.71-.1c1.2-.18,2.4-.37,3.58-.57l.46-.08c1-.17,2-.36,3.06-.55l.31-.05,1.12-.23,1.73-.35,1.45-.32.1,0c.52-.12,1-.23,1.57-.36l.43-.09,2.31-.58c.92-.23,1.83-.47,2.72-.72l.59-.17,2.35-.7.12,0c.94-.29,1.76-.56,2.56-.83l1.07-.39,1.73-.63.22-.09a367.79,367.79,0,0,0,2.74-41.74l-.06,0c-.25-.18-.51-.37-.78-.55l-.23-.16-.17-.1q-.56-.36-1.17-.72l-.48-.27c-.36-.2-.72-.39-1.1-.58l-.31-.17-.25-.12-1-.46-.62-.29-1.23-.52-.44-.18c-.67-.27-1.28-.5-1.92-.73s-1.31-.45-2-.67l-.92-.29-1.53-.46-1.8-.5-1.59-.4-1.47-.36-1.63-.37-2.17-.44L632,563l-1.34-.24-.49-.08-.81-.13-1.85-.29-1.32-.18-1.87-.25-.75-.1-.46-.05c-1.32-.15-2.66-.3-4-.42l-.37,0c-1.25-.12-2.52-.21-3.8-.3l-.56,0-.62,0-2.31-.13-1.25-.06-2.76-.1-.81,0c-1.19,0-2.39,0-3.59-.06h-3.08l-1.55,0-2.72.07-.87,0c-1.15,0-2.31.09-3.45.15l-.64,0-2.87.17-1,.08c-1,.07-2,.15-3,.24l-.38,0c-1.46.14-2.83.29-4.2.44l-.76.09c-1.33.16-2.64.34-4,.53l-.29,0-.61.1-2.16.34-1,.17c-.8.13-1.59.28-2.38.42l-.63.12c-.9.17-1.8.35-2.68.54l-.29.07-2.33.52-.11,0L561,565l-1.08.27c-.76.19-1.51.4-2.26.6l-.51.15-2,.61-.11,0c-.8.25-1.52.48-2.22.72l-.93.34c-.51.18-1,.36-1.51.55l-1.52.6-.54.23-.85.37-.11,0c-.46,6.61-1.14,13.23-1.94,19.83l.5-.23,1.17-.54.88-.38,1.3-.54.82-.32,1.55-.57.74-.26c.78-.27,1.59-.54,2.42-.8l.1,0c.94-.29,1.8-.55,2.69-.8l2.3-.62.77-.19,1.57-.38,1.71-.39.12,5.81-.75.23.17,8.58-1.39-.27-1.49-.3-1.22-.27-1.25-.28-1-.25-1.38-.35-1.25-.34-1-.3-1.25-.37-1-.31c-.72-.23-1.43-.47-2.12-.72s-1.29-.47-1.9-.72l-.53-.22-1.29-.54-.34-.15c-.94,7.43-2,14.85-3.06,22.26.37.14.73.29,1.11.42.74.27,1.5.53,2.27.78l1.05.32c.5.16,1,.32,1.52.47l1.48.41.82.23.26.07.93.23.54.14,1.25.3,2.4.55.37.07Zm73.77-37.37,1.76.31,1.35.25,1.32.27,1.46.31,1.08.25c.51.11,1,.23,1.51.36l1,.26,1.5.4.92.26,1.56.47.77.24c.75.24,1.5.49,2.22.75l1.9.72.53.22,1.29.54.64.3c.31.14.62.28.91.43l1.73.84-2.05,1.1-1,.51-.8.38-1.17.54-.88.38-1.31.54-.82.32-1.54.57-.75.26c-.78.27-1.58.54-2.41.8l-.12,0c-.91.28-1.78.54-2.68.79s-1.6.44-2.42.65l-.8.2-1.63.39-1.37.31-1.15.26-1.17.24-.12-6.39.86-.26Z"/><path class="cls-15" d="M574.1,621.46c-1.42-.14-2.81-.29-4.2-.45l-.55-.06-.36,0-3-.4-.55-.07c-1.16-.17-2.31-.35-3.44-.54l-1.56-.27-1.52-.27-.6-.12q1.5-10.87,3-21.75l.67.13,1.39.27-.17-8.58.75-.23-.12-5.81-.46.1c.94-6.15,1.91-12.29,3-18.42l.21-1.24.91-.18.63-.12c.79-.14,1.58-.29,2.38-.42l1-.17,2.16-.34.61-.1.29,0c1.31-.19,2.62-.37,4-.53l.76-.09c1.37-.15,2.74-.3,4.2-.44l.38,0c1-.09,2-.17,3-.24l1-.08,2.87-.17.64,0c1.14-.06,2.3-.11,3.45-.15l.87,0,2.72-.07,1.55,0H603c1.2,0,2.4,0,3.59.06l.81,0,2.76.1,1.25.06,2.31.13.62,0,.56,0c1.28.09,2.55.18,3.8.3l.37,0c1.35.12,2.69.27,4,.42l.46.05.75.1,1.87.25,1.32.18,1.85.29.81.13.49.08L632,563l1.45.27,2.17.44,1.63.37,1.47.36,1.59.4,1.32.36q-.43,9.21-1.5,18.37l-.52-.13c-.5-.13-1-.25-1.51-.36l-1.08-.25-1.46-.31-1.32-.27-1.35-.25-1.76-.31.18,8.81-.86.26.12,6.39,1.17-.24,1.15-.26,1.37-.31,1.63-.39.8-.2,1.75-.47a189.81,189.81,0,0,1-5.6,23.75c-.9.17-1.81.34-2.73.49l-.46.08c-1.18.2-2.38.39-3.58.57l-.71.1c-1.37.19-2.76.38-4.15.54l-.93.12c-1.54.18-3.08.34-4.63.49l-.35,0-.82.07-2.85.24-1.33.09c-1,.07-2.06.14-3.09.19l-1,.06c-1.35.07-2.69.13-4,.17l-.93,0-3.15.07-1.34,0h-4.12c-1.28,0-2.56,0-3.82-.06h-.22c-1.33,0-2.66-.08-4-.14l-1.19-.06-2.83-.16-.71,0-.49,0c-1.56-.11-3.12-.23-4.66-.37Z"/><path class="cls-16" d="M638.82,594.14c-26.93,7.57-67,7.15-89.46-.93s-18.91-20.76,8-28.32,67-7.14,89.47.94S665.75,586.58,638.82,594.14Zm-70.57-7.37-6,1.81,4.55,1.48,5.84-1.76a87.61,87.61,0,0,0,16,3.34l11.56-3.89L595,586.17c-.13,0-2.7.76-3.57,1-.24.11-1.87.44-3.49.73a38.2,38.2,0,0,1-9.7-2.16c-3.13-1.13-4.3-2.62-.42-3.71,10.5-3,28.55,4.6,47.06-.6,8.91-2.5,7.7-6-.1-8.94l7-2.15-4.49-1.46-7,2.15c-3.79-1.1-8.32-2.12-12.32-3L596.8,571.7l5.17,1.65,4.29-1.21,1-.2a25,25,0,0,1,8.18,1.57c3.39,1.22,3.78,2.68.37,3.64-9.47,2.66-28.3-4.72-46,.26-9.38,2.63-8.59,6.32-1.55,9.36"/><path class="cls-17" d="M586.59,575.68a55.22,55.22,0,0,0-16.79,1.73c-9.38,2.63-8.59,6.32-1.55,9.36l-6,1.81,4.56,1.48,5.83-1.76a87.61,87.61,0,0,0,16,3.34l11.56-3.89L595,586.17c-.13,0-2.7.76-3.57,1-.24.11-1.87.44-3.49.73a38,38,0,0,1-9.7-2.17c-3.13-1.12-4.3-2.61-.42-3.7,9.39-2.64,24.81,3.11,41.2.64a191.84,191.84,0,0,0,39.23,2.22c-3.62,3.44-10.14,6.67-19.47,9.29-26.93,7.57-67,7.15-89.46-.93-21.74-7.81-19.12-19.91,5.38-27.54C565.23,569.41,575.86,572.81,586.59,575.68Z"/><path class="cls-18" d="M644.75,596.27c-30.84,8.66-76.73,8.18-102.49-1.07s-21.64-23.78,9.2-32.44,76.72-8.18,102.49,1.07S675.59,587.61,644.75,596.27Zm-95.39-3.06c22.49,8.08,62.53,8.5,89.46.93s30.52-20.23,8-28.31-62.54-8.51-89.47-.94-30.52,20.24-8,28.32"/><path class="cls-19" d="M550.28,566.15c-9.34,3.47-15.08,7.79-16.39,12.44-.79,2.8.05,5.63,2.43,8.2,2.55,2.76,6.82,5.23,12.7,7.34,22.62,8.13,63,8.56,90.07,1,12.61-3.54,20.66-8.37,22.89-13.69q3.64-.17,7.29-.44c-2.31,5.37-11.23,10.56-24.79,14.36-30.62,8.61-76.33,8.13-101.88-1.05-6.42-2.3-11-4.94-13.72-7.85-2.23-2.41-3-4.89-2.3-7.38C528,574,535.37,569,547,565.15Z"/><path class="cls-20" d="M631.87,570.3l-4.49-1.46-7,2.15c-3.79-1.1-8.32-2.12-12.32-3L596.8,571.7l5.17,1.65,4.29-1.21,1-.2a25,25,0,0,1,8.18,1.57c3.39,1.22,3.78,2.68.37,3.64-9.47,2.66-28.3-4.72-46,.26-9.38,2.63-8.59,6.32-1.55,9.36l-6,1.81,4.55,1.48,5.84-1.76a87.61,87.61,0,0,0,16,3.34l11.56-3.89L595,586.17c-.13,0-2.7.76-3.57,1-.24.11-1.87.44-3.49.73a38.2,38.2,0,0,1-9.7-2.16c-3.13-1.13-4.3-2.62-.42-3.71,10.5-3,28.55,4.6,47.06-.6,8.91-2.5,7.7-6-.1-8.94Z"/><path class="cls-21" d="M598.92,577.74c3.83,1.68,7.69,3.26,11.6,4.54a128.82,128.82,0,0,1-15.4-1.1c-6.89-.78-12.83-1.46-17.52-.14-1.86.52-2.85,1.19-3.11,2.12A1.85,1.85,0,0,0,575,585a7.6,7.6,0,0,0,2.93,1.65,39,39,0,0,0,10,2.22h.11l.1,0c1.35-.23,3-.55,3.59-.74s2.22-.59,3.29-.88l1.91.59-8.46,2.84a86,86,0,0,1-15.55-3.27l-.29-.09L566.82,589l-1.29-.41,5.58-1.69-2.47-1.07a12.73,12.73,0,0,1-4.16-2.56c-.78-.85-.64-1.36-.59-1.52.15-.55,1.07-2,6.18-3.42C579.91,575.59,590,576.69,598.92,577.74Z"/><path class="cls-22" d="M571.91,589a87.63,87.63,0,0,0,16,3.34l8-2.68,2.79.86-11.56,3.88a87.61,87.61,0,0,1-16-3.34l-5.83,1.77-4.56-1.48,3.68-1.11,1.65.53Z"/><path class="cls-22" d="M631.87,570.3l-1.5,2.73-3.79,1.16c-.74-.36-1.56-.72-2.48-1.07Z"/><path class="cls-22" d="M645.35,568.55c-22.49-8.08-62.54-8.5-89.47-.94C543.85,571,536.49,575.4,534,580c1.14-5.27,8.8-10.51,22.64-14.4,26.92-7.56,67-7.14,89.47.94,12.44,4.47,16.88,10.35,13.83,16C661,577.49,656.28,572.48,645.35,568.55Z"/><path class="cls-22" d="M623.42,584.12c-18.51,5.2-36.56-2.35-47,.59a9.43,9.43,0,0,0-1.19.42c-1-.85-.61-1.75,2-2.47,10.49-2.95,28.55,4.6,47.06-.6a13.28,13.28,0,0,0,5.37-2.48C630,581.22,628.11,582.8,623.42,584.12Z"/><path class="cls-22" d="M562.19,583.06c.25,1.49,2.14,3,5.33,4.38l-3,.92C561.49,586.63,560.53,584.78,562.19,583.06Z"/><path class="cls-22" d="M605.53,572.81l1-.2a25,25,0,0,1,8.17,1.57c3,1.06,3.64,2.31,1.5,3.25a7.07,7.07,0,0,0-2.27-1.19,25,25,0,0,0-8.18-1.57l-1,.2-4.29,1.2-5.16-1.65,1.49-2.72,4.45,2.31Z"/><path class="cls-13" d="M521.43,580.39c.16.23.35.46.54.69l.14.18c.24.28.49.55.76.82l0,0,.18.18.72.65.32.27c.23.2.46.39.71.57l.35.27.93.66.22.15,0,0,.22.13c.44.29.9.57,1.39.86l.56.31c.42.24.85.47,1.3.69l.36.2.29.13,1.17.56.72.33,1.44.6.5.22.1,0c.69.28,1.4.55,2.14.81s1.52.53,2.3.79l.1,0,.85.26,1.65.51,1,.29,1.27.36.28.06,1.24.32,1.49.37,1.3.29,1.12.25.38.08,1.69.34,1.34.27,1.79.32,1.09.19.22,0c1.15.19,2.3.37,3.47.53l.55.08,3,.4.35,0,.57.06c1.39.17,2.79.31,4.21.45l.64.06c1.55.14,3.11.26,4.69.37l.49,0,.71,0,2.84.16,1.2.05c1.33.06,2.66.11,4,.15h.21q1.9,0,3.84.06h1.25c1,0,1.93,0,2.89,0H592l3.16-.08.93,0c1.35,0,2.71-.1,4.06-.17l1-.06,3.11-.19,1.33-.1c1-.07,1.91-.15,2.87-.24l.82-.06.34,0c1.57-.15,3.12-.31,4.66-.49l.93-.11c1.41-.18,2.8-.36,4.18-.56l.49-.06.21,0c1.22-.18,2.42-.37,3.61-.57l.46-.08c1-.18,2.06-.36,3.08-.56l.31-.05,1.13-.23c.58-.12,1.17-.23,1.74-.36l1.46-.31,1.68-.38.44-.1,1.42-.35.9-.23c.93-.24,1.85-.48,2.75-.73l.59-.17c.81-.23,1.6-.47,2.37-.71l.21-.07c.86-.26,1.69-.53,2.5-.81L645,589l.85-.3c.6-.21,1.18-.43,1.74-.64l.93-.36.84-.34.63-.27c.34-.14.67-.28,1-.43l1.32-.6.9-.43.41-.2.69-.37,1.05-.57c.34-.18.66-.37,1-.56s.65-.39,1-.58l.33-.2c.38-.25.74-.49,1.09-.75l.08,0c.47-.34.9-.67,1.31-1a2.88,2.88,0,0,0,.27-.22c.37-.3.72-.61,1-.92l.1-.11a3.83,3.83,0,0,0,.28-.29c.27-.27.53-.54.77-.81l.3-.36c.22-.28.43-.55.62-.83l.21-.29a11.47,11.47,0,0,0,.64-1.12l.09-.2a8.84,8.84,0,0,0,.37-.92c0-.12.08-.24.11-.36a7.91,7.91,0,0,0,.19-.81,3.43,3.43,0,0,0,.06-.34,8.44,8.44,0,0,0,.08-1.12l-.42-20.91a7,7,0,0,1-.07,1.12l-.06.34a7.91,7.91,0,0,1-.19.81c0,.12-.07.24-.11.36-.11.31-.23.61-.37.92,0,.07-.06.13-.1.2a8.84,8.84,0,0,1-.64,1.11l-.2.3c-.2.28-.4.55-.63.83l-.3.35c-.23.28-.49.55-.76.83l-.28.28c-.36.35-.74.69-1.15,1l-.27.22c-.41.34-.85.67-1.31,1l-.08.06c-.44.32-.93.64-1.42,1l-1,.58-.13.07-.12-6-.1-5.19h0a5.14,5.14,0,0,0-.07-.78c0-.09,0-.17,0-.26s-.07-.35-.12-.53l-.09-.3c-.06-.16-.11-.32-.18-.48a2.88,2.88,0,0,0-.13-.31q-.1-.24-.24-.48l-.16-.31-.32-.5-.19-.27c-.14-.2-.3-.4-.47-.61l-.12-.15c-.21-.24-.43-.48-.67-.72l0,0-.16-.15-.62-.58-.28-.23-.62-.5-.31-.23c-.26-.2-.53-.39-.82-.58l-.18-.13,0,0-.19-.11c-.38-.25-.79-.5-1.21-.75l-.5-.27c-.36-.21-.74-.41-1.13-.61l-.31-.17-.25-.12-1-.48-.64-.29-1.25-.52-.44-.19-.09,0c-.6-.24-1.22-.48-1.87-.71s-1.32-.46-2-.69l-.18,0-.76-.24c-.5-.16-1-.31-1.54-.46l-.91-.26-.9-.25-.58-.15-1-.26-1.48-.35c-.36-.08-.71-.17-1.07-.24l-.57-.13c-.29-.07-.59-.12-.88-.18l-1.32-.27-1.45-.27-1.36-.24-.49-.09-.82-.13-1.86-.29-1.32-.18-1.89-.25-.75-.1-.47,0c-1.33-.16-2.67-.3-4-.43l-.37,0c-1.26-.12-2.54-.21-3.82-.3l-.56-.05-.63,0-2.32-.13-1.26-.06-2.78-.1-.8,0c-1.2,0-2.41,0-3.62-.05h-4.64l-2.74.07-.88,0c-1.16,0-2.31.09-3.47.15l-.63,0c-1,0-1.93.11-2.89.18l-1,.07q-1.5.1-3,.24l-.38,0h-.08c-1.39.13-2.77.28-4.14.44l-.77.09c-1.33.16-2.66.34-4,.52l-.29,0-.62.1-2.17.34-1,.17-2.4.43-.51.09-.13,0q-1.37.25-2.7.54l-.28.07c-.8.17-1.58.35-2.35.53l-.17,0-1.37.34-.78.19-2.27.61-.52.15c-.71.2-1.4.41-2.08.62l-.17,0c-.75.23-1.48.47-2.18.71l-.21.08-.74.26-1.52.56-.81.32-.73.29-.55.24-.87.37-1.15.53-.78.38-.36.17c-.21.1-.4.21-.6.32s-.63.33-.92.5-.57.32-.85.49l-.83.5-.28.18-.35.24c-.39.27-.77.53-1.12.8l-.53.41c-.37.29-.71.59-1,.88l-.28.24-.09.1-.24.25c-.24.24-.46.47-.67.71s-.18.21-.26.32-.38.48-.55.72l-.18.26a9.54,9.54,0,0,0-.56,1c0,.07,0,.13-.08.19a7.85,7.85,0,0,0-.32.8c0,.1-.07.21-.1.31a6,6,0,0,0-.16.71l-.06.29a6.53,6.53,0,0,0-.06,1h0l.22,11.15-.56-.3-.57-.32c-.48-.28-1-.56-1.39-.85l-.26-.16-.21-.15c-.32-.22-.64-.44-.93-.66l-.35-.27c-.25-.19-.49-.38-.71-.57l-.33-.27c-.25-.22-.48-.44-.71-.66l-.19-.17c-.28-.29-.55-.58-.8-.87l-.15-.18q-.28-.34-.54-.69l-.21-.32c-.12-.19-.25-.38-.36-.57a3.9,3.9,0,0,1-.19-.35q-.15-.27-.27-.54a2.75,2.75,0,0,1-.15-.36,5.31,5.31,0,0,1-.2-.56,3.38,3.38,0,0,1-.11-.34,6,6,0,0,1-.13-.61c0-.1,0-.19-.06-.29,0-.3-.07-.6-.08-.9l.42,20.91a6.82,6.82,0,0,0,.07.9l.06.29c0,.21.08.41.13.61a3.38,3.38,0,0,0,.11.34,5.31,5.31,0,0,0,.2.56l.15.36c.08.18.17.36.27.55s.12.23.19.34.24.39.37.58Zm124-18.24.89.43-.35.18c-.31.17-.63.34-1,.5l-.78.38-1.16.52-.85.38-1.3.53-.8.31-1.52.56-.74.27c-.77.26-1.57.53-2.39.79l-.18,0c-.84.26-1.7.52-2.59.77l-2.39.64-.8.2-1.62.39-1.47.33-1,.23-.09-4.46.86-.26-.16-8.36.45.08,1.46.27,1.31.27,1.45.31,1.07.24,1.49.35,1,.27c.5.12,1,.26,1.48.39l.92.26,1.54.46.75.24c.75.24,1.48.48,2.19.74s1.27.47,1.88.71l.52.22c.43.17.85.35,1.26.53Zm-107,2.37,1-.49.79-.38,1.15-.53.86-.37,1.29-.53.8-.32,1.53-.56.73-.26c.78-.27,1.57-.53,2.39-.79l.19-.06c.84-.26,1.69-.51,2.58-.76l2.28-.61.76-.19,1.55-.38.53-.12.08,3.86-.75.23h0l.16,8.11-.19,0-1.48-.3-1.32-.29-1.13-.26-1.3-.32-1.08-.27-1.37-.38-.9-.25-1.45-.44-.74-.23c-.71-.23-1.41-.47-2.09-.71s-1.27-.47-1.87-.71l-.52-.21-1.26-.54-.63-.28-.9-.43Z"/><path class="cls-14" d="M551.25,592.72l1.58.31c.5.1,1,.18,1.52.27l1.55.28,3.45.53.55.07,3,.4.35,0,.56.06c1.38.17,2.78.32,4.19.45l.64.06c1.54.14,3.1.26,4.66.37l.49,0,.71,0c.94.05,1.88.11,2.83.15l1.19.06c1.33.06,2.66.11,4,.14h.21c1.27,0,2.55,0,3.82.06h4.13l1.34,0c1,0,2.1,0,3.15-.07l.93,0c1.35,0,2.69-.1,4-.17l1,0,3.09-.19,1.32-.1c1-.07,1.91-.15,2.86-.24l.82-.06.34,0c1.56-.15,3.1-.31,4.64-.49l.92-.11c1.4-.17,2.79-.35,4.16-.55l.71-.1c1.2-.18,2.39-.36,3.58-.56l.46-.08,3.06-.55.31-.06,1.12-.23,1.73-.35,1.45-.32.1,0,1.57-.35.43-.1,2.31-.57c.92-.24,1.83-.48,2.72-.73l.59-.17c.8-.23,1.58-.46,2.34-.7l.13,0c.93-.29,1.76-.56,2.56-.83l1.07-.39,1.72-.63.23-.09a367.77,367.77,0,0,0,2.74-41.73l-.07-.05c-.24-.19-.51-.37-.78-.55l-.22-.16-.17-.1q-.56-.37-1.17-.72l-.49-.28-1.09-.58-.31-.17-.25-.11c-.32-.16-.65-.32-1-.47l-.62-.28c-.4-.18-.82-.35-1.23-.52l-.44-.19c-.67-.26-1.29-.5-1.92-.72s-1.31-.46-2-.68l-.93-.29L636,539l-1.8-.5-1.59-.4-1.47-.35-1.63-.37-2.18-.44c-.47-.1-1-.19-1.44-.27l-1.34-.24-.49-.09-.82-.13-1.84-.28-1.32-.19-1.87-.25-.75-.09-.46,0c-1.32-.16-2.66-.3-4-.43l-.37,0c-1.25-.11-2.52-.21-3.8-.3l-.56,0-.63,0-2.3-.13-1.25-.06q-1.38-.06-2.76-.09l-.81,0c-1.19,0-2.39-.05-3.59-.06h-3.08l-1.55,0c-.91,0-1.81,0-2.72.06l-.87,0c-1.16,0-2.31.08-3.46.14l-.63,0c-1,0-1.91.11-2.87.18l-1,.07c-1,.07-2,.15-3,.24l-.38,0c-1.46.13-2.84.28-4.2.44l-.76.09c-1.33.16-2.65.33-3.95.52l-.29,0-.61.09-2.16.34-1,.17-2.38.43-.63.11-2.68.55-.29.06c-.78.17-1.56.34-2.33.53l-.11,0-1.1.27-1.08.27-2.26.61-.51.14c-.7.2-1.39.41-2.06.62l-.1,0c-.81.25-1.52.49-2.22.73l-.93.33-1.51.55-1.52.6-.54.23-.85.37-.11,0c-.46,6.62-1.14,13.23-1.94,19.84l.49-.24,1.18-.54.87-.38,1.31-.53.82-.33c.5-.19,1-.38,1.55-.56l.74-.27c.78-.27,1.58-.54,2.41-.8l.11,0c.93-.29,1.8-.55,2.69-.8l2.3-.62.77-.19,1.57-.38,1.71-.39.11,5.82-.74.22.17,8.59-1.39-.27-1.5-.31-1.21-.26-1.25-.29-1-.25-1.38-.35-1.26-.34-1-.29c-.43-.12-.84-.25-1.25-.38l-1-.3-2.12-.72c-.66-.24-1.29-.48-1.9-.72l-.53-.22c-.44-.18-.87-.36-1.29-.55l-.34-.15c-.94,7.43-2,14.86-3.06,22.27l1.11.42c.74.26,1.49.52,2.27.77l1,.33,1.52.46,1.49.42.81.22.27.07.93.24.54.13,1.25.31,2.4.54.37.08ZM625,555.35l1.76.31,1.34.26,1.33.26,1.46.31,1.08.25,1.51.36,1,.26,1.5.4.92.26,1.56.47.77.24c.75.24,1.49.5,2.22.75l1.9.72.53.22c.44.18.87.36,1.28.55l.65.29.91.43,1.73.84-2,1.1c-.37.2-.67.36-1,.51l-.8.39c-.38.18-.77.36-1.18.53s-.57.26-.87.38l-1.31.54-.82.32-1.54.57-.75.27c-.78.27-1.58.54-2.41.8l-.12,0-2.68.8-2.42.64-.8.2-1.63.4-1.37.31-1.15.25-1.17.25-.13-6.4.86-.26Z"/><path class="cls-15" d="M568,595.13c-1.41-.13-2.81-.28-4.19-.45l-.56-.06-.35,0-3-.4-.55-.07-3.45-.53-1.55-.28c-.51-.09-1-.17-1.52-.27l-.6-.12c1-7.25,2-14.5,3-21.75l.67.14,1.39.27-.17-8.59.74-.22-.11-5.82-.46.1q1.39-9.22,3-18.42l.21-1.23.91-.19.63-.11,2.38-.43,1-.17,2.16-.34.61-.09.29,0c1.3-.19,2.62-.36,3.95-.52l.76-.09c1.36-.16,2.74-.31,4.2-.44l.38,0c1-.09,2-.17,3-.24l1-.07c1-.07,1.91-.13,2.87-.18l.63,0c1.15-.06,2.3-.1,3.46-.14l.87,0c.91,0,1.81-.05,2.72-.06l1.55,0h3.08c1.2,0,2.4,0,3.59.06l.81,0q1.38,0,2.76.09l1.25.06,2.3.13.63,0,.56,0c1.28.09,2.55.19,3.8.3l.37,0c1.35.13,2.69.27,4,.43l.46,0,.75.09,1.87.25,1.32.19,1.84.28.82.13.49.09,1.34.24c.48.08,1,.17,1.44.27l2.18.44,1.63.37,1.47.35,1.59.4,1.32.37c-.3,6.13-.79,12.27-1.51,18.36l-.51-.13-1.51-.36-1.08-.25-1.46-.31-1.33-.26-1.34-.26-1.76-.31.17,8.81-.86.26.13,6.4,1.17-.25,1.15-.25,1.37-.31,1.63-.4.8-.2,1.75-.46a194.26,194.26,0,0,1-5.6,23.75l-2.73.49-.46.08c-1.19.2-2.38.38-3.58.56l-.71.1c-1.37.2-2.76.38-4.16.55l-.92.11c-1.54.18-3.08.34-4.64.49l-.34,0-.82.06c-1,.09-1.9.17-2.86.24l-1.32.1-3.09.19-1,0c-1.35.07-2.69.13-4,.17l-.93,0c-1,0-2.1.06-3.15.07l-1.34,0h-4.13c-1.27,0-2.55,0-3.82-.06h-.21c-1.33,0-2.66-.08-4-.14l-1.19-.06c-1,0-1.89-.1-2.83-.15l-.71,0-.49,0c-1.56-.11-3.12-.23-4.66-.37Z"/><path class="cls-16" d="M632.73,567.82c-26.93,7.56-67,7.14-89.47-.94s-18.9-20.76,8-28.32,67-7.14,89.47.94S659.66,560.26,632.73,567.82Zm-70.58-7.38-6,1.82,4.56,1.48,5.83-1.77a87.63,87.63,0,0,0,16,3.34l11.56-3.89L589,559.84c-.13,0-2.71.76-3.57,1a34.06,34.06,0,0,1-3.49.73,38.32,38.32,0,0,1-9.71-2.16c-3.12-1.12-4.3-2.62-.41-3.71,10.5-2.95,28.55,4.6,47.06-.6,8.9-2.5,7.7-6-.1-8.93l7-2.15-4.49-1.46-7,2.15c-3.79-1.11-8.33-2.13-12.32-3l-11.22,3.7,5.17,1.65,4.28-1.21,1-.19a24.8,24.8,0,0,1,8.18,1.56c3.38,1.22,3.78,2.68.36,3.64-9.46,2.66-28.29-4.72-46,.26-9.38,2.64-8.59,6.32-1.56,9.36"/><path class="cls-17" d="M580.5,549.36a54.9,54.9,0,0,0-16.79,1.72c-9.38,2.64-8.59,6.32-1.56,9.36l-6,1.82,4.56,1.48,5.83-1.77a87.63,87.63,0,0,0,16,3.34l11.56-3.89L589,559.84c-.13,0-2.71.76-3.57,1a34.06,34.06,0,0,1-3.49.73,38.32,38.32,0,0,1-9.71-2.16c-3.12-1.12-4.3-2.62-.41-3.71,9.38-2.63,24.81,3.11,41.2.65a192.55,192.55,0,0,0,39.23,2.21c-3.62,3.44-10.14,6.68-19.47,9.3-26.93,7.56-67,7.14-89.47-.94-21.73-7.81-19.11-19.91,5.39-27.54C559.14,543.08,569.77,546.48,580.5,549.36Z"/><path class="cls-18" d="M638.66,570c-30.85,8.66-76.73,8.18-102.49-1.08s-21.64-23.78,9.2-32.44,76.72-8.18,102.48,1.08S669.5,561.28,638.66,570Zm-95.4-3.07c22.5,8.08,62.54,8.5,89.47.94s30.52-20.24,8-28.32-62.55-8.5-89.47-.94-30.52,20.24-8,28.32"/><path class="cls-19" d="M544.18,539.82c-9.33,3.48-15.07,7.8-16.39,12.44-.79,2.8.05,5.64,2.43,8.21,2.56,2.75,6.83,5.22,12.71,7.34,22.62,8.12,63,8.55,90.07,1,12.61-3.55,20.66-8.38,22.88-13.69q3.66-.18,7.3-.45C660.87,560,652,565.19,638.39,569c-30.62,8.6-76.33,8.13-101.89-1-6.41-2.31-11-5-13.71-7.86-2.23-2.4-3-4.89-2.3-7.38,1.43-5.06,8.79-10,20.44-13.89C542,539.16,543.1,539.5,544.18,539.82Z"/><path class="cls-20" d="M625.78,544l-4.49-1.46-7,2.15c-3.79-1.11-8.33-2.13-12.32-3l-11.22,3.7,5.17,1.65,4.28-1.21,1-.19a24.8,24.8,0,0,1,8.18,1.56c3.38,1.22,3.78,2.68.36,3.64-9.46,2.66-28.29-4.72-46,.26-9.38,2.64-8.59,6.32-1.56,9.36l-6,1.82,4.56,1.48,5.83-1.77a87.63,87.63,0,0,0,16,3.34l11.56-3.89L589,559.84c-.13,0-2.71.76-3.57,1a34.06,34.06,0,0,1-3.49.73,38.32,38.32,0,0,1-9.71-2.16c-3.12-1.12-4.3-2.62-.41-3.71,10.5-2.95,28.55,4.6,47.06-.6,8.9-2.5,7.7-6-.1-8.93Z"/><path class="cls-21" d="M592.82,551.42c3.84,1.67,7.7,3.26,11.61,4.54A128.94,128.94,0,0,1,589,554.85c-6.88-.78-12.82-1.46-17.51-.14-1.86.52-2.85,1.2-3.11,2.12a1.82,1.82,0,0,0,.52,1.81,7.47,7.47,0,0,0,2.93,1.65,38.4,38.4,0,0,0,10,2.22h.1l.11,0c1.35-.24,3-.55,3.59-.75s2.22-.58,3.29-.88l1.91.59-8.46,2.85A87.12,87.12,0,0,1,566.84,561l-.29-.09-5.83,1.77-1.28-.42L565,560.6l-2.48-1.06a12.94,12.94,0,0,1-4.15-2.57c-.78-.85-.64-1.35-.59-1.52.15-.55,1.06-2,6.18-3.42C573.82,549.26,583.88,550.37,592.82,551.42Z"/><path class="cls-22" d="M565.82,562.64a87.63,87.63,0,0,0,16,3.34l8-2.69,2.79.86L581,568a87.61,87.61,0,0,1-16-3.34l-5.84,1.77L554.66,565l3.68-1.12,1.65.54Z"/><path class="cls-22" d="M625.78,544l-1.5,2.73-3.8,1.15c-.73-.36-1.55-.72-2.47-1.07Z"/><path class="cls-22" d="M639.26,542.23c-22.49-8.08-62.54-8.5-89.47-.94-12,3.38-19.39,7.78-21.86,12.33,1.14-5.27,8.8-10.51,22.63-14.39,26.93-7.56,67-7.14,89.48.94,12.44,4.47,16.88,10.34,13.83,16C654.94,551.17,650.19,546.15,639.26,542.23Z"/><path class="cls-22" d="M617.33,557.79c-18.51,5.2-36.56-2.35-47.06.6a9.94,9.94,0,0,0-1.18.41c-1-.85-.61-1.75,2-2.47,10.49-3,28.54,4.6,47.06-.6a13.35,13.35,0,0,0,5.37-2.48C623.88,554.89,622,556.48,617.33,557.79Z"/><path class="cls-22" d="M556.1,556.73c.25,1.49,2.14,3,5.33,4.38l-3,.92C555.4,560.31,554.44,558.45,556.1,556.73Z"/><path class="cls-22" d="M599.44,546.48l1-.2a25,25,0,0,1,8.17,1.57c3,1.06,3.63,2.31,1.5,3.25a7.28,7.28,0,0,0-2.27-1.19,25,25,0,0,0-8.18-1.57l-1,.2-4.29,1.21-5.17-1.65,1.5-2.73,4.45,2.32Z"/><path class="cls-13" d="M526.65,555.8c.16.23.35.46.54.69l.14.19c.24.27.49.54.76.82l0,0,.19.18c.22.22.46.44.71.65s.21.19.32.28l.71.57.35.26c.3.23.61.45.93.67.08,0,.14.09.22.14l0,0,.21.13c.44.28.9.57,1.39.85l.56.32,1.3.69.36.19.29.14,1.17.55.72.33,1.44.61.51.21.09,0c.69.28,1.4.55,2.15.82s1.51.53,2.29.78l.1,0,.85.27,1.65.5,1,.29,1.27.36.28.07,1.24.31,1.49.37,1.3.29,1.12.26.38.07,1.69.35,1.35.26,1.78.32,1.09.2.22,0c1.15.19,2.3.37,3.47.54l.55.07,3,.4.35,0c.19,0,.38,0,.57.06,1.39.16,2.79.31,4.21.44l.64.07c1.55.14,3.11.26,4.69.36l.49,0,.71,0,2.84.16,1.2.06c1.33.06,2.67.11,4,.14h.21c1.27,0,2.55.05,3.84.06h4.14l1.35,0,3.16-.07.93,0c1.36,0,2.71-.1,4.06-.17l1-.06c1-.05,2.07-.12,3.11-.19l1.33-.1,2.87-.23.82-.07.34,0c1.57-.14,3.12-.31,4.66-.49l.94-.11c1.4-.17,2.79-.35,4.17-.55l.49-.07.21,0c1.22-.18,2.42-.37,3.62-.57l.46-.08,3.07-.55.31-.06,1.13-.23,1.75-.35,1.45-.32,1.68-.38.44-.1,1.42-.35.91-.23c.92-.23,1.84-.48,2.74-.73l.59-.17c.81-.23,1.6-.47,2.37-.71l.21-.06c.86-.27,1.69-.54,2.5-.82l.23-.08.85-.31c.6-.21,1.18-.42,1.75-.64l.92-.36.85-.33.63-.28,1-.42,1.32-.61.9-.43.41-.2.69-.37c.36-.19.72-.37,1.06-.56l1-.57c.33-.19.65-.38,1-.58l.32-.19,1.1-.75.08-.06c.46-.33.89-.67,1.3-1l.28-.22c.36-.31.71-.62,1-.93l.1-.1.28-.29c.27-.27.53-.55.77-.82l.3-.36c.22-.28.43-.55.62-.83l.21-.29a12.64,12.64,0,0,0,.64-1.11l.09-.21a8,8,0,0,0,.37-.92c0-.12.08-.24.11-.36a7.16,7.16,0,0,0,.19-.8c0-.12.05-.23.06-.34a8.59,8.59,0,0,0,.08-1.13L670,527.15a7.15,7.15,0,0,1-.07,1.13c0,.11,0,.22-.06.33a7.91,7.91,0,0,1-.19.81c0,.12-.07.24-.11.36a8.84,8.84,0,0,1-.37.92l-.09.21a12.64,12.64,0,0,1-.64,1.11l-.21.29c-.19.28-.4.55-.62.83l-.31.36c-.23.27-.49.55-.76.82l-.28.29c-.36.34-.74.68-1.15,1l-.27.21c-.41.34-.84.68-1.31,1l-.08.06c-.44.32-.93.63-1.42.94-.3.2-.63.39-.95.58l-.13.07-.11-6-.11-5.18h0a6.83,6.83,0,0,0-.06-.79,2.21,2.21,0,0,1-.05-.25c0-.18-.07-.36-.12-.53l-.09-.3c-.06-.17-.11-.33-.18-.49s-.08-.21-.13-.31-.15-.32-.24-.48-.1-.2-.16-.3-.21-.34-.32-.5l-.18-.27c-.15-.21-.31-.41-.48-.61l-.12-.16c-.21-.24-.43-.48-.66-.71l-.05,0c0-.06-.11-.11-.16-.16-.2-.19-.4-.38-.62-.57l-.28-.24-.62-.5-.31-.23c-.26-.19-.53-.39-.81-.58l-.19-.13,0,0-.18-.12c-.39-.25-.79-.5-1.22-.74L653,518l-1.13-.6-.32-.17-.25-.12-1-.48-.63-.29c-.41-.18-.83-.36-1.26-.53l-.44-.19-.09,0c-.6-.24-1.22-.47-1.87-.71s-1.32-.46-2-.68l-.18-.06-.76-.23c-.5-.16-1-.32-1.54-.47l-.91-.25-.9-.26-.58-.14-1-.26-1.49-.36-1.07-.24-.57-.13-.88-.18-1.32-.27-1.45-.27-1.35-.24-.5-.09-.82-.12-1.85-.29-1.33-.19-1.89-.25-.75-.1-.46-.05c-1.34-.15-2.68-.3-4-.43l-.37,0c-1.26-.11-2.54-.21-3.82-.3l-.56,0-.63,0-2.32-.13-1.25-.06-2.78-.1-.81,0c-1.2,0-2.41-.05-3.61-.06h-3.69l-1,0c-.91,0-1.83,0-2.74.06l-.88,0c-1.15,0-2.31.08-3.47.14l-.63,0c-1,.05-1.93.11-2.89.18l-1,.07-3,.25-.38,0h-.08c-1.39.13-2.77.28-4.14.43l-.77.09c-1.33.16-2.66.34-4,.53l-.29,0-.62.09-2.17.34-1,.17-2.4.43-.51.09-.13,0c-.91.18-1.81.36-2.69.55l-.29.06-2.35.53-.17,0-1.37.34-.77.19-2.28.61-.52.15c-.71.2-1.4.41-2.08.62l-.17,0-2.18.72-.21.07-.73.27c-.52.18-1,.37-1.53.56l-.8.31-.74.29-.55.24-.87.38-1.14.52-.79.38-.36.17c-.21.11-.39.22-.6.32s-.63.33-.92.5l-.85.49-.83.51-.28.17-.34.25c-.4.26-.78.53-1.13.79l-.53.41c-.37.29-.71.59-1,.89-.08.08-.19.16-.28.24l-.09.09-.24.25c-.24.24-.46.48-.67.72l-.26.31c-.2.24-.38.48-.55.72s-.12.17-.18.26a10.56,10.56,0,0,0-.56,1l-.08.18c-.12.27-.23.53-.32.8,0,.1-.07.21-.1.31a6,6,0,0,0-.16.71c0,.1,0,.2-.05.3a5.28,5.28,0,0,0-.07,1h0l.22,11.16-.56-.3-.57-.32c-.48-.28-.94-.57-1.39-.86l-.26-.16-.21-.15q-.48-.32-.93-.66l-.35-.26c-.25-.19-.48-.38-.71-.57l-.33-.28-.71-.65-.18-.18c-.29-.29-.56-.57-.81-.87l-.14-.18c-.2-.23-.38-.46-.55-.69l-.21-.31c-.12-.19-.25-.38-.36-.57l-.19-.35c-.1-.18-.19-.37-.27-.55s-.11-.24-.15-.35-.14-.38-.2-.56-.08-.23-.11-.35-.09-.4-.13-.6l-.06-.3c0-.3-.07-.6-.08-.9l.42,20.91a6.82,6.82,0,0,0,.07.9l.06.3c0,.2.08.4.13.61s.07.22.11.34.13.37.2.56l.15.35c.08.18.18.37.27.55l.19.35c.12.19.24.38.37.57S526.57,555.7,526.65,555.8Zm124-18.23.89.42-.34.19-1,.49-.78.38-1.15.53-.86.37c-.42.18-.85.36-1.3.53l-.8.32-1.52.56-.74.26c-.77.27-1.56.53-2.39.79l-.18.05c-.84.26-1.7.52-2.59.77s-1.58.43-2.39.64l-.8.2-1.61.39c-.49.12-1,.22-1.48.33l-1,.23-.09-4.46.86-.26-.16-8.36.45.08,1.46.28,1.31.26,1.45.31,1.07.24,1.49.36,1,.26,1.48.4.91.25,1.54.47.76.23c.74.24,1.47.49,2.18.74l1.88.71.52.22,1.26.53C650.27,537.37,650.47,537.47,650.68,537.57Zm-107,2.37,1-.5.79-.38c.37-.17.75-.35,1.15-.52l.86-.38,1.29-.53.8-.31c.5-.19,1-.38,1.53-.56l.73-.27c.78-.26,1.57-.53,2.39-.78l.19-.06c.84-.26,1.69-.52,2.58-.77l2.28-.61.76-.19,1.55-.38.53-.12.08,3.87-.74.22h0l.16,8.11-.19,0c-.5-.09-1-.19-1.48-.3l-1.32-.29-1.13-.25-1.3-.32L555,544.3l-1.37-.37-.9-.25-1.45-.45-.74-.22c-.71-.24-1.4-.47-2.08-.72s-1.27-.47-1.88-.71l-.52-.21-1.26-.53-.63-.29-.9-.42Z"/><path class="cls-14" d="M556.47,568.13l1.58.31,1.52.28,1.56.27c1.13.19,2.28.37,3.44.53l.55.08q1.49.21,3,.39l.36,0,.55.06c1.39.16,2.78.31,4.19.44l.64.07c1.54.14,3.1.26,4.66.36l.49,0,.71,0,2.83.16,1.19.06,4,.14H588c1.26,0,2.54.05,3.82.06H593c1,0,1.92,0,2.88,0h1.34l3.15-.08.93,0c1.35-.05,2.69-.1,4-.17l1-.06,3.09-.19,1.33-.1,2.85-.23.82-.07.35,0c1.55-.14,3.09-.31,4.63-.48l.93-.12c1.39-.17,2.78-.35,4.15-.55l.71-.1c1.2-.17,2.4-.36,3.58-.56l.46-.08,3.06-.55.31-.06,1.12-.22,1.73-.35,1.45-.32.1,0,1.57-.36.43-.1,2.31-.57c.92-.23,1.83-.48,2.72-.73l.59-.16c.8-.23,1.58-.47,2.35-.71l.12,0c.94-.3,1.76-.56,2.56-.84l1.07-.38c.59-.21,1.17-.42,1.73-.64l.22-.08a367.94,367.94,0,0,0,2.74-41.74l-.06,0c-.25-.18-.51-.37-.78-.55l-.23-.16-.17-.1q-.55-.36-1.17-.72l-.49-.27c-.35-.2-.71-.39-1.09-.59l-.31-.16-.25-.12-1-.47-.62-.28c-.4-.18-.81-.35-1.23-.52l-.44-.18c-.67-.27-1.28-.5-1.92-.73s-1.31-.46-2-.68l-.93-.28-1.52-.46-1.8-.51-1.59-.4-1.47-.35-1.63-.37-2.18-.44-1.44-.27-1.34-.24-.49-.09-.81-.12-1.85-.29-1.32-.19-1.87-.24-.75-.1-.46-.05c-1.32-.16-2.66-.3-4-.43l-.37,0c-1.25-.11-2.52-.21-3.8-.3l-.56,0-.62,0-2.31-.13-1.25-.06-2.76-.1-.81,0c-1.19,0-2.39-.05-3.59-.05h-3.08l-1.55,0-2.72.06-.87,0c-1.15,0-2.31.09-3.45.15l-.64,0L587,510l-1,.07-3,.25-.38,0c-1.46.14-2.83.28-4.2.44l-.76.09c-1.33.16-2.64.33-3.95.52l-.29,0-.61.1-2.16.34-1,.16-2.38.43-.63.12c-.9.17-1.8.35-2.68.54l-.29.06-2.33.53-.11,0-1.1.27-1.08.26-2.26.61-.51.15c-.7.2-1.38.4-2,.61l-.11,0c-.8.25-1.52.49-2.22.73l-.93.33-1.51.56-1.52.6-.54.23-.85.37-.11.05c-.46,6.61-1.14,13.22-1.94,19.83l.5-.23c.38-.19.77-.36,1.17-.54l.88-.38,1.3-.54.82-.32,1.55-.57.74-.27c.78-.27,1.58-.53,2.42-.79l.1,0c.94-.29,1.8-.55,2.69-.8s1.53-.42,2.3-.62l.77-.19,1.57-.39,1.71-.39.12,5.82-.75.23.17,8.58-1.39-.27-1.49-.3-1.22-.27-1.25-.28-1-.26-1.38-.34-1.25-.35-1-.29-1.25-.38-1-.3c-.72-.23-1.43-.47-2.12-.72l-1.9-.72-.53-.22-1.29-.54-.34-.16c-.94,7.44-2,14.86-3.06,22.27l1.11.42c.74.27,1.5.52,2.27.78l1.05.32,1.51.46,1.49.42.82.23.26.06.93.24.54.13,1.25.31,2.4.55.37.07Zm73.77-37.37,1.76.32,1.35.25,1.32.27,1.46.31,1.08.24,1.51.36,1,.27,1.5.4.92.26,1.56.47.77.24c.75.24,1.5.49,2.22.75s1.29.47,1.9.72l.53.22,1.29.54.64.29.91.43,1.73.84-2.05,1.11-1,.51-.8.38-1.17.54-.88.38-1.31.54-.82.32-1.54.56-.75.27c-.78.27-1.58.54-2.41.8l-.12,0c-.91.29-1.78.55-2.68.8s-1.6.44-2.42.65l-.8.19-1.63.4-1.37.31-1.15.25-1.17.25-.12-6.39.86-.26Z"/><path class="cls-15" d="M573.22,570.54c-1.41-.13-2.8-.28-4.19-.44l-.55-.06-.36,0q-1.51-.18-3-.39l-.55-.08c-1.16-.16-2.31-.34-3.44-.53l-1.56-.27-1.52-.28-.6-.11q1.5-10.89,3-21.76l.67.14,1.39.27-.17-8.58.75-.23-.12-5.82-.46.11c.94-6.15,1.91-12.3,3-18.43l.21-1.23.91-.18.63-.12,2.38-.43,1-.16,2.16-.34.61-.1.29,0c1.31-.19,2.62-.36,3.95-.52l.76-.09c1.37-.16,2.74-.3,4.2-.44l.38,0,3-.25,1-.07,2.87-.18.64,0c1.14-.06,2.3-.11,3.45-.15l.87,0,2.72-.06,1.55,0h3.08c1.2,0,2.4,0,3.59.05l.81,0,2.76.1,1.25.06,2.31.13.62,0,.56,0c1.28.09,2.55.19,3.8.3l.37,0c1.35.13,2.69.27,4,.43l.46.05.75.1,1.87.24,1.32.19,1.85.29.81.12.49.09,1.34.24,1.44.27,2.18.44,1.63.37,1.47.35,1.59.4,1.32.37q-.43,9.21-1.5,18.36l-.52-.13-1.51-.36-1.08-.24-1.46-.31-1.32-.27-1.35-.25-1.76-.32.18,8.82-.86.26.12,6.39,1.17-.25,1.15-.25,1.37-.31L635,545l.8-.19,1.75-.47a192,192,0,0,1-5.6,23.75l-2.73.49-.46.08c-1.18.2-2.38.39-3.58.56l-.71.1c-1.37.2-2.76.38-4.15.55l-.93.12c-1.54.17-3.08.34-4.63.48l-.35,0-.82.07-2.85.23-1.33.1-3.09.19-1,.06c-1.35.07-2.69.12-4,.17l-.93,0-3.15.08h-1.34c-1,0-1.92,0-2.88,0h-1.24c-1.28,0-2.56,0-3.82-.06h-.22l-4-.14-1.19-.06-2.83-.16-.71,0-.49,0c-1.56-.1-3.12-.22-4.66-.36Z"/><path class="cls-16" d="M638,543.23c-26.93,7.56-67,7.14-89.46-.94s-18.91-20.75,8-28.32,67-7.14,89.47.94S664.88,535.67,638,543.23Zm-70.57-7.38-6,1.82,4.56,1.48,5.84-1.77a87.61,87.61,0,0,0,16,3.34l11.56-3.88-5.11-1.58c-.13,0-2.7.76-3.57,1a34.5,34.5,0,0,1-3.49.72,37.72,37.72,0,0,1-9.7-2.16c-3.13-1.12-4.3-2.61-.42-3.71,10.5-2.94,28.55,4.61,47.06-.59,8.91-2.5,7.7-6-.1-8.94l7-2.15-4.49-1.46-7,2.15c-3.79-1.11-8.32-2.12-12.32-3l-11.22,3.7,5.17,1.65,4.29-1.2c.16-.05.55-.11,1-.2a25,25,0,0,1,8.18,1.57c3.39,1.22,3.78,2.68.37,3.64-9.47,2.65-28.3-4.72-46,.25-9.38,2.64-8.59,6.33-1.55,9.36"/><path class="cls-17" d="M585.72,524.77a54.9,54.9,0,0,0-16.79,1.72c-9.38,2.64-8.59,6.33-1.55,9.36l-6,1.82,4.55,1.48,5.84-1.77a87.61,87.61,0,0,0,16,3.34l11.56-3.88-5.11-1.58c-.13,0-2.7.76-3.57,1a35.18,35.18,0,0,1-3.49.72,37.72,37.72,0,0,1-9.7-2.16c-3.13-1.12-4.3-2.61-.42-3.71,9.38-2.63,24.81,3.12,41.2.65a191.84,191.84,0,0,0,39.23,2.21c-3.62,3.45-10.14,6.68-19.47,9.3-26.93,7.56-67,7.14-89.46-.94-21.74-7.8-19.12-19.9,5.38-27.53C564.36,518.49,575,521.89,585.72,524.77Z"/><path class="cls-18" d="M643.88,545.36c-30.84,8.66-76.73,8.18-102.49-1.07s-21.64-23.78,9.2-32.44,76.72-8.18,102.49,1.07S674.72,536.7,643.88,545.36Zm-95.39-3.07c22.49,8.08,62.53,8.5,89.46.94s30.52-20.24,8-28.32-62.54-8.5-89.47-.94-30.52,20.24-8,28.32"/><path class="cls-19" d="M549.41,515.24c-9.34,3.47-15.08,7.79-16.39,12.44-.79,2.79.05,5.63,2.43,8.2,2.55,2.76,6.82,5.23,12.7,7.34,22.62,8.12,63,8.56,90.07,1,12.61-3.54,20.66-8.38,22.88-13.69q3.66-.16,7.3-.44c-2.31,5.37-11.23,10.55-24.79,14.36-30.62,8.6-76.33,8.13-101.88-1-6.42-2.3-11-5-13.72-7.85-2.23-2.41-3-4.89-2.3-7.39,1.43-5,8.79-10,20.44-13.88Z"/><path class="cls-20" d="M631,519.39l-4.49-1.46-7,2.15c-3.79-1.11-8.32-2.12-12.32-3l-11.22,3.7,5.17,1.65,4.29-1.2c.16-.05.55-.11,1-.2a25,25,0,0,1,8.18,1.57c3.39,1.22,3.78,2.68.37,3.64-9.47,2.65-28.3-4.72-46,.25-9.38,2.64-8.59,6.33-1.55,9.36l-6,1.82,4.56,1.48,5.84-1.77a87.61,87.61,0,0,0,16,3.34l11.56-3.88-5.11-1.58c-.13,0-2.7.76-3.57,1a35.18,35.18,0,0,1-3.49.72,37.72,37.72,0,0,1-9.7-2.16c-3.13-1.12-4.3-2.61-.42-3.71,10.5-2.94,28.55,4.61,47.06-.59,8.91-2.5,7.7-6-.1-8.94Z"/><path class="cls-21" d="M598.05,526.83c3.83,1.68,7.69,3.26,11.6,4.54a128.67,128.67,0,0,1-15.4-1.1c-6.89-.79-12.83-1.46-17.52-.14-1.86.52-2.85,1.19-3.11,2.12a1.83,1.83,0,0,0,.52,1.8,7.47,7.47,0,0,0,2.93,1.66,39.42,39.42,0,0,0,10,2.22h.11l.1,0c1.35-.24,3-.55,3.59-.75s2.22-.58,3.29-.88l1.91.6-8.46,2.84a87.12,87.12,0,0,1-15.55-3.28l-.29-.09L566,538.12l-1.29-.42,5.58-1.68L567.77,535a12.72,12.72,0,0,1-4.16-2.57c-.78-.85-.64-1.35-.59-1.51.15-.56,1.07-2,6.18-3.43C579,524.68,589.11,525.78,598.05,526.83Z"/><path class="cls-22" d="M571,538.05a87.63,87.63,0,0,0,16,3.34l8-2.69,2.79.87-11.56,3.88a87.61,87.61,0,0,1-16-3.34l-5.83,1.77-4.56-1.48,3.68-1.12,1.65.54Z"/><path class="cls-22" d="M631,519.39l-1.5,2.73-3.79,1.16c-.74-.37-1.56-.72-2.48-1.07Z"/><path class="cls-22" d="M644.48,517.64c-22.49-8.08-62.54-8.5-89.47-.94-12,3.38-19.39,7.78-21.86,12.34,1.14-5.27,8.8-10.51,22.64-14.4,26.92-7.56,67-7.14,89.47.94,12.44,4.47,16.88,10.34,13.83,16C660.16,526.58,655.41,521.57,644.48,517.64Z"/><path class="cls-22" d="M622.55,533.21c-18.51,5.2-36.56-2.35-47,.59a9.54,9.54,0,0,0-1.19.41c-1-.85-.61-1.75,2-2.47,10.49-2.94,28.55,4.61,47.06-.59a13.4,13.4,0,0,0,5.37-2.49C629.1,530.3,627.24,531.89,622.55,533.21Z"/><path class="cls-22" d="M561.32,532.15c.25,1.48,2.14,3,5.33,4.37l-3,.93C560.62,535.72,559.66,533.86,561.32,532.15Z"/><path class="cls-22" d="M604.66,521.9c.16,0,.56-.11,1-.2a24.47,24.47,0,0,1,8.17,1.57c3,1.06,3.64,2.31,1.5,3.24a7.29,7.29,0,0,0-2.27-1.18,24.52,24.52,0,0,0-8.18-1.57c-.46.09-.85.15-1,.2l-4.29,1.2-5.16-1.65,1.49-2.73,4.45,2.32Z"/><path class="cls-13" d="M518.42,530.82q.26.34.54.69l.15.19c.23.27.49.54.76.82l0,0,.19.18c.23.22.46.44.71.65l.33.28c.22.19.46.38.71.57l.35.26c.29.23.61.45.93.66l.21.15,0,0,.21.13c.44.28.91.57,1.39.85l.57.32,1.29.69.36.19.29.14,1.17.55.72.33,1.45.61.5.21.09,0c.7.28,1.41.55,2.15.82s1.52.53,2.3.78l.09,0,.86.27,1.64.5,1,.29,1.28.36.27.07,1.24.31,1.5.37,1.29.29,1.13.26.37.07,1.7.35,1.34.26,1.78.32,1.1.2.22,0c1.14.19,2.3.37,3.47.54l.55.07,3,.4.36,0c.18,0,.38,0,.56.06,1.39.16,2.8.31,4.22.44l.64.07c1.54.14,3.11.26,4.68.36l.49,0,.72,0,2.84.16,1.19.06c1.33.06,2.67.11,4,.14h.21c1.28,0,2.56.05,3.84.06h4.15l1.34,0,3.17-.07.93,0c1.35,0,2.7-.1,4-.17l1-.06c1,0,2.07-.12,3.1-.19l1.33-.1,2.87-.23.82-.07.35,0c1.56-.14,3.11-.31,4.66-.49l.93-.11c1.4-.17,2.8-.35,4.17-.55l.49-.07.22,0c1.21-.18,2.42-.37,3.61-.57l.46-.08,3.08-.55.31-.06,1.13-.23,1.74-.35,1.46-.32,1.68-.38.44-.1,1.42-.35.9-.23c.93-.23,1.84-.48,2.74-.73l.6-.17c.81-.23,1.59-.47,2.36-.71l.22-.06c.85-.27,1.68-.54,2.49-.82l.24-.08.85-.31c.59-.21,1.18-.42,1.74-.64l.92-.36.85-.33.63-.28,1-.42,1.32-.61.9-.43.4-.2.7-.37,1.05-.56,1-.57c.32-.19.64-.38,1-.58l.32-.19c.38-.25.75-.5,1.1-.75l.08-.06c.46-.33.9-.67,1.31-1l.27-.22c.37-.31.72-.62,1-.93l.11-.1c.1-.1.18-.2.28-.29.27-.27.52-.55.76-.82q.16-.18.3-.36c.23-.28.43-.55.62-.83a3.06,3.06,0,0,0,.21-.29,10.53,10.53,0,0,0,.64-1.11,1.89,1.89,0,0,0,.09-.21,8.1,8.1,0,0,0,.38-.92c0-.12.07-.24.11-.36a7.16,7.16,0,0,0,.19-.8l.06-.34a7.15,7.15,0,0,0,.07-1.13l-.41-20.91a7.16,7.16,0,0,1-.08,1.13c0,.11,0,.22-.05.33a8,8,0,0,1-.2.81c0,.12-.07.24-.11.36a8.84,8.84,0,0,1-.37.92,1.89,1.89,0,0,1-.09.21,10.53,10.53,0,0,1-.64,1.11c-.06.1-.14.19-.21.29-.19.28-.4.55-.62.83l-.3.36c-.24.27-.5.55-.77.82l-.28.29c-.35.34-.74.68-1.14,1l-.27.21c-.42.34-.85.68-1.31,1l-.08.06c-.45.31-.93.63-1.42.94-.31.2-.63.39-1,.58l-.12.07-.12-6-.1-5.18h0a6.82,6.82,0,0,0-.07-.79,2.21,2.21,0,0,0-.05-.25,4.54,4.54,0,0,0-.12-.53c0-.1-.06-.2-.09-.3s-.11-.33-.17-.49l-.13-.31-.24-.48-.17-.3a5.29,5.29,0,0,0-.32-.5l-.18-.28-.47-.6s-.08-.11-.13-.16a8.68,8.68,0,0,0-.66-.71s0,0,0,0l-.16-.16-.63-.57-.28-.24-.62-.5-.3-.23-.82-.58-.18-.13-.05,0-.18-.12c-.39-.25-.79-.5-1.21-.74l-.5-.28-1.13-.6a3.24,3.24,0,0,0-.32-.17l-.25-.12-1-.48c-.21-.1-.41-.2-.63-.29-.41-.18-.83-.36-1.26-.53l-.44-.19-.08,0c-.6-.24-1.23-.47-1.87-.71s-1.33-.46-2-.68l-.18-.06-.76-.23-1.54-.47-.91-.25-.91-.26-.57-.14-1-.26-1.49-.36-1.06-.24-.58-.13-.88-.18-1.31-.27-1.46-.27-1.35-.24-.49-.09-.83-.13-1.85-.28-1.33-.19-1.88-.25-.76-.1-.46-.05c-1.33-.15-2.67-.3-4-.43l-.36,0c-1.27-.11-2.54-.21-3.83-.3l-.56,0-.63,0-2.32-.13-1.25-.06-2.78-.1-.81,0c-1.2,0-2.4,0-3.61-.06h-3.69l-1,0q-1.37,0-2.73.06l-.88,0c-1.16,0-2.32.08-3.47.14l-.63,0c-1,.05-1.93.11-2.89.18l-1,.07-3,.25-.37,0h-.08c-1.4.13-2.77.27-4.15.43l-.76.09c-1.34.16-2.66.34-4,.53l-.29,0-.63.09-2.16.34-1,.17-2.4.43-.5.09-.13,0-2.7.55-.29.06-2.35.53-.16,0-1.38.34-.77.19-2.28.61-.51.15c-.72.2-1.4.41-2.08.62l-.18.05-2.17.72-.21.07-.74.27c-.52.18-1,.37-1.53.56l-.8.31-.74.29-.55.24-.86.38-1.15.52-.79.38-.35.17-.6.32-.93.5-.84.49c-.28.17-.57.34-.83.51l-.28.17-.35.24-1.13.8-.53.41c-.36.29-.71.59-1,.89-.09.08-.2.16-.28.24l-.09.09c-.09.08-.17.17-.25.25-.23.24-.46.48-.67.72l-.26.31q-.28.36-.54.72c-.06.09-.13.17-.18.26a8.67,8.67,0,0,0-.56,1l-.08.18c-.13.27-.23.53-.33.8l-.09.31a6.09,6.09,0,0,0-.17.71c0,.1,0,.2-.05.3a6.32,6.32,0,0,0-.06,1h0l.22,11.16-.56-.3-.57-.32c-.49-.28-1-.57-1.39-.86a2.26,2.26,0,0,1-.26-.16l-.21-.15c-.33-.22-.64-.43-.94-.66l-.35-.26-.71-.57-.32-.28c-.25-.21-.49-.43-.71-.65l-.19-.18q-.43-.43-.81-.87l-.14-.18q-.28-.35-.54-.69c-.08-.1-.14-.21-.21-.31s-.25-.38-.36-.57-.13-.24-.2-.35l-.27-.55-.15-.36c-.07-.18-.14-.37-.2-.55s-.07-.23-.1-.35a6,6,0,0,1-.14-.61,2.5,2.5,0,0,1,0-.29,5.47,5.47,0,0,1-.08-.9l.41,20.91c0,.3,0,.6.08.9,0,.1,0,.2.06.3a4.76,4.76,0,0,0,.13.61c0,.11.07.22.11.34s.12.37.19.56.1.23.16.35.17.37.27.55l.19.35q.17.28.36.57Zm124-18.23.9.42-.35.19-1,.49-.79.38-1.15.53-.86.37c-.42.18-.85.36-1.29.53l-.8.32-1.53.56-.74.26c-.77.27-1.56.53-2.38.79l-.18.05c-.84.26-1.7.52-2.59.77l-2.4.64-.79.2-1.62.39-1.47.33-1,.23-.09-4.46.86-.26L623,507l.46.08,1.45.28,1.32.26,1.45.31,1.07.24,1.49.36,1,.26,1.48.4.91.25,1.55.47.75.23c.75.24,1.48.49,2.19.74s1.27.47,1.87.71l.53.22c.42.17.85.35,1.25.53C642,512.39,642.24,512.49,642.45,512.59Zm-107,2.37c.31-.17.63-.34,1-.5l.78-.38,1.15-.52.86-.38,1.29-.53.81-.31,1.52-.56.74-.27c.77-.26,1.56-.53,2.38-.78l.2-.06c.83-.26,1.69-.52,2.58-.77.74-.21,1.5-.41,2.27-.61l.77-.19,1.55-.38.53-.12.07,3.87-.74.22h0l.16,8.11-.2,0c-.49-.1-1-.19-1.48-.3l-1.31-.29-1.13-.25-1.3-.32-1.09-.28-1.36-.37-.9-.25-1.46-.45-.73-.23c-.71-.23-1.41-.46-2.09-.71s-1.27-.47-1.87-.71l-.52-.21-1.27-.53-.62-.29-.9-.42A3.9,3.9,0,0,1,535.43,515Z"/><path class="cls-14" d="M548.25,543.15l1.57.31,1.53.28,1.55.27c1.14.19,2.28.37,3.45.53l.54.08c1,.14,2,.27,3,.39l.36,0,.56.06c1.38.16,2.78.31,4.19.44l.64.07c1.54.14,3.09.26,4.66.36l.49,0,.7,0,2.83.16,1.2,0q2,.09,4,.15h.21c1.27,0,2.54.05,3.82.06h1.25c1,0,1.92,0,2.88,0H589l3.15-.08.93,0c1.34,0,2.69-.1,4-.17l1-.06,3.09-.19,1.33-.1,2.86-.23.81-.07.35,0c1.55-.14,3.1-.31,4.63-.48l.93-.12c1.4-.17,2.78-.35,4.16-.55l.7-.1c1.2-.17,2.4-.36,3.59-.56l.45-.08,3.06-.55.32-.06,1.12-.22,1.73-.36,1.44-.31.1,0,1.57-.36.44-.1,2.31-.57c.92-.23,1.82-.48,2.72-.73l.59-.16c.8-.23,1.58-.47,2.34-.71l.13,0,2.55-.84,1.08-.38c.58-.21,1.16-.42,1.72-.64l.22-.08a370.43,370.43,0,0,0,2.75-41.74l-.07-.05c-.25-.18-.51-.37-.78-.55l-.23-.16-.16-.1c-.38-.24-.77-.48-1.18-.72l-.48-.27c-.35-.2-.72-.39-1.1-.59l-.31-.16-.25-.12c-.31-.16-.65-.31-1-.47l-.62-.28c-.39-.18-.81-.35-1.23-.52l-.43-.18c-.68-.27-1.29-.5-1.93-.73s-1.3-.46-2-.68l-.92-.28-1.52-.46-1.8-.51-1.6-.4-1.47-.35-1.62-.37-2.18-.44-1.44-.27-1.34-.24-.5-.09-.81-.12-1.84-.29-1.32-.19-1.87-.24-.75-.1-.47-.05c-1.32-.16-2.65-.3-4-.43l-.37,0c-1.25-.11-2.52-.21-3.8-.3l-.55,0-.63,0-2.31-.13-1.24-.06c-.92,0-1.84-.08-2.77-.1l-.8,0c-1.2,0-2.39-.05-3.6-.05h-3.07l-1.55,0-2.72.06-.88,0-3.45.15-.63,0c-1,.06-1.92.11-2.87.18l-1,.07-3,.25-.37,0c-1.47.14-2.84.28-4.2.44l-.77.09c-1.32.16-2.64.33-3.94.52l-.29,0-.62.1-2.15.34-1,.16-2.39.43-.63.12c-.9.17-1.79.35-2.68.54l-.28.06-2.33.53-.11,0-1.11.28-1.08.26-2.25.61-.51.15c-.71.2-1.39.4-2.06.61l-.1,0c-.81.25-1.53.49-2.23.73l-.93.33-1.5.56-1.53.6-.53.23-.85.37-.11.05c-.47,6.61-1.14,13.22-1.94,19.83l.49-.23c.38-.19.77-.36,1.17-.54l.88-.38,1.31-.54.82-.32,1.54-.57.75-.27c.78-.27,1.58-.53,2.41-.79l.1,0c.94-.29,1.8-.55,2.7-.8s1.52-.42,2.3-.62l.77-.19,1.56-.39,1.72-.39.11,5.82-.74.23.17,8.58-1.4-.27-1.49-.3-1.22-.27-1.25-.28-1-.26-1.38-.34-1.25-.35-1-.29-1.24-.38-1-.3c-.73-.23-1.43-.47-2.12-.72l-1.91-.72-.52-.22-1.29-.54-.34-.16c-.94,7.43-2,14.86-3.06,22.27l1.1.42,2.27.78,1.05.32,1.52.46,1.48.42.82.23.27.06.93.24.53.13,1.25.31,2.4.55.37.07ZM622,505.78l1.75.32,1.35.25,1.33.27,1.46.31,1.08.24,1.5.36,1,.27,1.49.4.93.26,1.56.47.76.24q1.14.36,2.22.75c.66.23,1.29.47,1.9.72l.54.22,1.28.54.65.29.91.43,1.73.84-2,1.11-1,.51-.8.38-1.18.54-.87.38c-.43.18-.87.36-1.32.53l-.82.33c-.49.19-1,.38-1.54.56l-.74.27c-.79.27-1.59.54-2.42.8l-.11,0c-.92.29-1.79.55-2.69.8l-2.41.65-.8.19-1.64.4-1.37.31-1.15.25-1.16.25-.13-6.39.86-.26Z"/><path class="cls-15" d="M565,545.56c-1.41-.13-2.81-.28-4.19-.44l-.56-.06-.36,0c-1-.12-2-.25-3-.39l-.54-.08c-1.17-.16-2.31-.34-3.45-.53l-1.55-.27-1.53-.28-.59-.11q1.49-10.89,3-21.76l.67.14,1.4.27-.17-8.58.74-.23-.11-5.82-.46.11q1.39-9.23,2.95-18.43c.07-.41.15-.82.22-1.23l.9-.18.63-.12,2.39-.43,1-.16,2.15-.34.62-.1.29,0c1.3-.19,2.62-.36,3.94-.52l.77-.09c1.36-.16,2.73-.3,4.2-.44l.37,0,3-.25,1-.07c1-.07,1.91-.12,2.87-.18l.63,0,3.45-.15.88,0,2.72-.06,1.55,0h3.07c1.21,0,2.4,0,3.6.05l.8,0c.93,0,1.85.06,2.77.1l1.24.06,2.31.13.63,0,.55,0c1.28.09,2.55.19,3.8.3l.37,0c1.36.13,2.69.27,4,.43l.47.05.75.1,1.87.24,1.32.19,1.84.29.81.12.5.09,1.34.24,1.44.27,2.18.44,1.62.37,1.47.35,1.6.4,1.31.37q-.43,9.21-1.5,18.36l-.52-.13-1.5-.36-1.08-.24-1.46-.31-1.33-.27-1.35-.25-1.75-.32.17,8.82-.86.26.13,6.39,1.16-.25,1.15-.25,1.37-.31,1.64-.4.8-.19,1.74-.47a190.22,190.22,0,0,1-5.6,23.75l-2.73.49-.45.08c-1.19.2-2.39.39-3.59.56l-.7.1c-1.38.2-2.76.38-4.16.55l-.93.12c-1.53.17-3.08.34-4.63.48l-.35,0-.81.07-2.86.23-1.33.1-3.09.19-1,.06c-1.34.07-2.69.12-4,.17l-.93,0-3.15.08h-1.34c-1,0-1.92,0-2.88,0h-1.25c-1.28,0-2.55,0-3.82-.06h-.21q-2-.06-4-.15l-1.2,0-2.83-.16-.7,0-.49,0c-1.57-.1-3.12-.22-4.66-.36Z"/><path class="cls-16" d="M629.73,518.25c-26.93,7.56-67,7.14-89.47-.94s-18.9-20.75,8-28.32,67-7.14,89.48.94S656.65,510.69,629.73,518.25Zm-70.58-7.38-6,1.82,4.56,1.48,5.83-1.77a87.78,87.78,0,0,0,16,3.34l11.56-3.88-5.1-1.58c-.14,0-2.71.76-3.57,1-.25.11-1.88.44-3.49.72a38.24,38.24,0,0,1-9.71-2.16c-3.12-1.12-4.3-2.61-.41-3.71,10.49-2.94,28.54,4.61,47.06-.59,8.9-2.5,7.69-6-.11-8.94l7.06-2.15L618.29,493l-7,2.15c-3.78-1.11-8.32-2.12-12.31-3l-11.22,3.7,5.16,1.65,4.29-1.2c.16-.05.55-.11,1-.2a24.78,24.78,0,0,1,8.18,1.57c3.39,1.22,3.79,2.68.37,3.64-9.46,2.65-28.29-4.72-46,.25-9.39,2.64-8.6,6.33-1.56,9.36"/><path class="cls-17" d="M577.49,499.79a54.84,54.84,0,0,0-16.78,1.72c-9.39,2.64-8.6,6.33-1.56,9.36l-6,1.82,4.56,1.48,5.83-1.77a87.78,87.78,0,0,0,16,3.34l11.56-3.88-5.1-1.58c-.14,0-2.71.76-3.57,1-.25.11-1.88.44-3.49.72a37.76,37.76,0,0,1-9.71-2.16c-3.12-1.12-4.3-2.61-.41-3.71,9.38-2.63,24.8,3.12,41.2.65A191.78,191.78,0,0,0,649.19,509c-3.61,3.45-10.13,6.68-19.46,9.3-26.93,7.56-67,7.14-89.47-.94-21.73-7.8-19.11-19.9,5.39-27.53C556.13,493.51,566.77,496.91,577.49,499.79Z"/><path class="cls-18" d="M635.65,520.38c-30.84,8.66-76.72,8.18-102.48-1.07s-21.65-23.78,9.2-32.44,76.72-8.18,102.48,1.07S666.49,511.72,635.65,520.38Zm-95.39-3.07c22.49,8.08,62.54,8.5,89.47.94s30.52-20.24,8-28.32-62.55-8.5-89.48-.94-30.51,20.24-8,28.32"/><path class="cls-19" d="M541.18,490.26c-9.34,3.47-15.08,7.79-16.39,12.44-.79,2.79.05,5.63,2.43,8.2,2.55,2.76,6.83,5.23,12.71,7.34,22.61,8.12,63,8.56,90.06,1,12.62-3.54,20.67-8.38,22.89-13.69,2.43-.11,4.87-.26,7.3-.44-2.32,5.37-11.24,10.55-24.8,14.36-30.62,8.6-76.32,8.13-101.88-1-6.41-2.3-11-5-13.72-7.85-2.22-2.41-3-4.89-2.29-7.39,1.42-5.05,8.79-10,20.44-13.88Z"/><path class="cls-20" d="M622.78,494.41,618.29,493l-7,2.15c-3.78-1.11-8.32-2.12-12.31-3l-11.22,3.7,5.16,1.65,4.29-1.2c.16-.05.55-.11,1-.2a24.78,24.78,0,0,1,8.18,1.57c3.39,1.22,3.79,2.68.37,3.64-9.46,2.65-28.29-4.72-46,.25-9.39,2.64-8.6,6.33-1.56,9.36l-6,1.82,4.56,1.48,5.83-1.77a87.78,87.78,0,0,0,16,3.34l11.56-3.88-5.1-1.58c-.14,0-2.71.76-3.57,1-.25.11-1.88.44-3.49.72a38.24,38.24,0,0,1-9.71-2.16c-3.12-1.12-4.3-2.61-.41-3.71,10.49-2.94,28.54,4.61,47.06-.59,8.9-2.5,7.69-6-.11-8.94Z"/><path class="cls-21" d="M589.82,501.85c3.84,1.68,7.7,3.26,11.61,4.54a129,129,0,0,1-15.41-1.1c-6.88-.79-12.83-1.46-17.52-.15-1.86.53-2.85,1.2-3.11,2.12a1.87,1.87,0,0,0,.52,1.81,7.52,7.52,0,0,0,2.94,1.66,39.48,39.48,0,0,0,10,2.22H579l.11,0c1.34-.24,3-.55,3.59-.75s2.22-.58,3.28-.88l1.92.6-8.47,2.84a87.26,87.26,0,0,1-15.54-3.28l-.29-.09-5.83,1.77-1.28-.42L562,511,559.54,510a12.66,12.66,0,0,1-4.15-2.57c-.79-.85-.65-1.35-.6-1.51.16-.56,1.07-2,6.18-3.43C570.81,499.7,580.88,500.8,589.82,501.85Z"/><path class="cls-22" d="M562.82,513.07a87.61,87.61,0,0,0,15.95,3.34l8-2.69,2.79.87L578,518.47a87.63,87.63,0,0,1-16-3.34l-5.83,1.77-4.56-1.48,3.69-1.12,1.65.54Z"/><path class="cls-22" d="M622.78,494.41l-1.5,2.73-3.8,1.16a25.93,25.93,0,0,0-2.48-1.07Z"/><path class="cls-22" d="M636.26,492.66c-22.49-8.08-62.55-8.5-89.48-.94-12,3.38-19.39,7.78-21.85,12.34,1.13-5.27,8.79-10.51,22.63-14.4,26.93-7.56,67-7.14,89.47.94,12.44,4.47,16.89,10.34,13.83,16C651.94,501.6,647.19,496.59,636.26,492.66Z"/><path class="cls-22" d="M614.33,508.23c-18.52,5.2-36.57-2.35-47.06.59a8.81,8.81,0,0,0-1.18.41c-1-.85-.61-1.75,2-2.47,10.49-2.94,28.54,4.61,47.05-.59a13.4,13.4,0,0,0,5.37-2.49C620.87,505.32,619,506.91,614.33,508.23Z"/><path class="cls-22" d="M553.09,507.17c.26,1.48,2.15,3,5.34,4.37l-3.06.93C552.4,510.74,551.44,508.88,553.09,507.17Z"/><path class="cls-22" d="M596.44,496.92c.16-.05.55-.11,1-.2a24.52,24.52,0,0,1,8.18,1.57c3,1.06,3.63,2.31,1.49,3.24a7.18,7.18,0,0,0-2.27-1.18,24.47,24.47,0,0,0-8.17-1.57c-.47.09-.86.15-1,.2l-4.28,1.2-5.17-1.65,1.5-2.73,4.44,2.32Z"/><path class="cls-13" d="M531.56,505.83q.26.35.54.69l.15.18c.24.28.49.55.76.82l0,.05.19.18.71.65.33.28c.22.19.46.38.71.57l.35.26.93.66.21.15,0,0,.21.13c.45.29.91.57,1.39.86l.57.32,1.29.69.37.19.29.14,1.17.55.72.33,1.44.61.5.21.1,0c.69.28,1.4.55,2.14.81s1.52.54,2.3.79l.09,0,.86.26,1.65.51,1,.29,1.28.36.28.07,1.24.31,1.49.37,1.29.29,1.13.26.38.07,1.69.34,1.34.27,1.79.32,1.09.19.22,0c1.14.19,2.3.37,3.47.54l.55.07,3,.4.36,0,.56.06c1.39.17,2.8.32,4.22.45l.64.06c1.54.14,3.11.26,4.68.37l.49,0,.72,0,2.84.16,1.2.06,4,.14h.21q1.92,0,3.84.06h1.26l2.89,0h1.34l3.17-.07.93,0c1.35-.05,2.7-.1,4-.17l1-.06,3.1-.19,1.33-.1,2.87-.23.83-.07.34,0c1.56-.15,3.12-.31,4.66-.49l.93-.11c1.4-.17,2.8-.36,4.18-.55l.48-.07.22,0c1.21-.18,2.42-.37,3.61-.57l.46-.08c1-.18,2.06-.36,3.08-.56l.31,0,1.13-.23,1.74-.35,1.46-.32,1.68-.38.44-.1,1.42-.35.9-.23,2.75-.73.59-.17c.81-.23,1.59-.47,2.36-.71l.22-.06c.85-.27,1.69-.54,2.49-.82l.24-.08.85-.31c.59-.21,1.18-.42,1.74-.64l.93-.36c.28-.11.57-.22.84-.34l.63-.27c.34-.14.67-.28,1-.43l1.32-.6.9-.43.4-.2c.25-.12.46-.25.7-.37l1.05-.57c.34-.18.65-.37,1-.56l1-.58.32-.2c.38-.24.75-.49,1.1-.74l.08-.06c.46-.33.9-.67,1.31-1l.27-.22c.37-.3.72-.61,1-.92l.11-.1.28-.29c.27-.28.53-.55.76-.82l.31-.36c.22-.28.42-.55.62-.83.06-.1.14-.2.2-.29a12.79,12.79,0,0,0,.65-1.11,1.89,1.89,0,0,1,.09-.21c.14-.31.26-.61.37-.92,0-.12.07-.24.11-.36a7.91,7.91,0,0,0,.19-.81l.06-.34a7,7,0,0,0,.07-1.12l-.41-20.91a7,7,0,0,1-.07,1.12l-.06.34c0,.27-.12.54-.19.81s-.07.24-.11.36a8.94,8.94,0,0,1-.38.92,1.89,1.89,0,0,1-.09.21,10.53,10.53,0,0,1-.64,1.11l-.21.29c-.19.28-.39.55-.62.83l-.3.36c-.24.27-.49.54-.76.82-.1.09-.19.19-.28.28-.36.35-.74.69-1.15,1l-.27.22c-.41.34-.85.67-1.31,1l-.08.06c-.45.31-.93.63-1.42.94l-1,.58-.13.07-.12-6-.1-5.18h0a6.85,6.85,0,0,0-.07-.78,1.84,1.84,0,0,0-.05-.25c0-.18-.07-.36-.11-.54s-.07-.2-.1-.3-.11-.32-.17-.48-.09-.21-.13-.31l-.24-.48c0-.1-.11-.2-.17-.3s-.2-.34-.31-.51l-.19-.27c-.14-.2-.3-.4-.47-.6a1,1,0,0,0-.13-.16q-.3-.36-.66-.72l0,0-.16-.15-.63-.57-.28-.24-.62-.5-.3-.23c-.26-.2-.54-.39-.82-.58l-.18-.13,0,0-.19-.11c-.38-.25-.79-.5-1.21-.74-.16-.1-.33-.19-.5-.28-.36-.21-.74-.41-1.13-.61l-.31-.16c-.08-.05-.18-.08-.26-.12-.33-.17-.67-.33-1-.49l-.63-.28c-.4-.18-.83-.36-1.25-.53l-.45-.19-.08,0c-.6-.24-1.23-.48-1.87-.71l-2-.69-.18-.05L648,464l-1.54-.46-.91-.26-.91-.25-.57-.14-1-.27-1.48-.35-1.07-.24-.58-.13c-.29-.07-.59-.12-.88-.18l-1.31-.27-1.46-.27-1.35-.24-.49-.09-.83-.13-1.85-.28-1.32-.19-1.89-.25-.76-.1-.46-.05c-1.33-.16-2.67-.3-4-.43l-.37,0c-1.27-.11-2.54-.21-3.83-.3l-.55,0-.63,0-2.33-.13-1.25-.06-2.78-.1-.81,0c-1.2,0-2.4-.05-3.61-.06h-.92c-.72,0-1.45,0-2.17,0h-.59l-1,0-2.73.06-.88,0c-1.16,0-2.32.09-3.47.15l-.63,0c-1,.05-1.93.11-2.89.18l-1,.07c-1,.07-2,.16-3,.25l-.38,0h-.08c-1.39.12-2.77.27-4.15.43l-.76.09c-1.34.16-2.66.34-4,.53l-.29,0-.62.1-2.17.34-1,.17-2.4.43-.5.09-.13,0c-.91.17-1.81.36-2.7.55l-.29.06-2.35.53-.16,0-1.38.34-.77.19-2.28.61-.51.15c-.71.2-1.4.41-2.08.62l-.18.05c-.74.24-1.47.47-2.17.71l-.21.08-.74.26-1.52.57-.81.31-.74.29-.55.24-.86.37-1.15.53-.79.38-.35.17-.6.32-.93.5-.84.49-.83.51-.28.17-.35.24c-.39.27-.77.53-1.13.8l-.52.41c-.37.29-.72.59-1,.89a3.22,3.22,0,0,0-.28.24l-.09.09-.25.25c-.23.24-.46.48-.66.72l-.27.31q-.29.36-.54.72l-.18.26a8.67,8.67,0,0,0-.56,1l-.08.18a7.85,7.85,0,0,0-.32.8c0,.1-.07.21-.1.31s-.12.47-.17.71,0,.2,0,.29a6.53,6.53,0,0,0-.06,1h0l.22,11.15-.56-.3-.57-.31c-.48-.29-1-.57-1.39-.86l-.26-.16-.21-.15c-.33-.22-.64-.44-.94-.66l-.35-.27-.71-.56-.32-.28-.71-.65-.19-.18c-.29-.29-.55-.58-.8-.87-.06-.06-.1-.12-.15-.18q-.29-.35-.54-.69l-.21-.31c-.13-.19-.25-.38-.36-.58s-.13-.23-.19-.34l-.28-.55-.15-.36c-.07-.18-.14-.37-.2-.56s-.07-.22-.1-.34a6,6,0,0,1-.14-.61c0-.09,0-.19,0-.29a6.84,6.84,0,0,1-.08-.9L529.8,501c0,.3,0,.6.08.9a2.47,2.47,0,0,0,.06.29,6,6,0,0,0,.13.61c0,.12.07.23.11.35s.12.37.2.55a2.75,2.75,0,0,0,.15.36c.08.18.17.36.27.55s.12.23.19.34.24.39.36.58Zm124-18.23.89.42-.35.18c-.31.17-.63.34-1,.5l-.78.38-1.16.53-.86.37-1.29.53-.8.31c-.5.19-1,.38-1.53.56l-.73.27c-.78.27-1.57.53-2.39.79l-.18.05c-.84.26-1.7.52-2.59.77l-2.4.64-.79.2-1.62.39-1.47.33-1,.23-.09-4.46.86-.26-.16-8.36.45.08,1.45.27,1.32.27,1.45.31,1.07.24c.5.12,1,.23,1.49.36l1,.26,1.48.39.91.26c.53.15,1,.31,1.55.47l.75.23c.75.24,1.48.49,2.19.74s1.27.47,1.87.71l.53.22c.43.17.85.35,1.25.53Zm-107,2.36,1-.49.78-.38,1.15-.53.87-.37c.41-.18.85-.35,1.28-.53l.81-.31,1.52-.57.74-.26c.77-.27,1.56-.53,2.38-.79l.2-.05c.83-.26,1.69-.52,2.58-.77l2.27-.61.77-.19,1.55-.38.53-.12.07,3.86-.74.23h0l.16,8.11-.2,0c-.49-.1-1-.19-1.47-.3l-1.32-.29-1.13-.25-1.3-.33-1.08-.27-1.37-.37-.9-.26c-.5-.14-1-.29-1.45-.44l-.74-.23c-.71-.23-1.41-.46-2.09-.71s-1.27-.47-1.87-.71l-.52-.21-1.26-.53-.63-.29c-.31-.14-.61-.28-.9-.43Z"/><path class="cls-14" d="M561.39,518.16l1.57.31,1.53.28L566,519l3.45.53.55.07c1,.14,2,.28,3,.4l.36.05.56.06c1.38.16,2.78.31,4.19.44l.64.06c1.54.14,3.09.26,4.66.37l.49,0,.7,0,2.84.16,1.19,0c1.32.06,2.65.11,4,.14h.21c1.27,0,2.54,0,3.82.06h4.13l1.34,0c1.05,0,2.1,0,3.15-.07l.93,0c1.34,0,2.69-.11,4-.18l1-.05,3.1-.19,1.32-.1c1-.07,1.91-.15,2.86-.24l.81-.06.35,0c1.55-.14,3.1-.31,4.63-.49l.93-.11c1.4-.17,2.78-.35,4.16-.55l.71-.1c1.19-.18,2.39-.36,3.58-.56l.45-.08,3.06-.55.32-.06,1.12-.23,1.73-.35c.41-.08,1.44-.32,1.44-.32l.1,0,1.58-.35.43-.1,2.31-.57c.92-.24,1.83-.48,2.72-.73l.59-.17c.8-.23,1.58-.46,2.34-.7l.13,0c.93-.29,1.75-.56,2.55-.83l1.08-.39,1.72-.63.23-.09a370.09,370.09,0,0,0,2.74-41.73l-.07,0c-.25-.19-.51-.37-.78-.55l-.23-.16-.16-.1c-.38-.24-.77-.48-1.18-.72l-.48-.27c-.35-.2-.72-.4-1.1-.59l-.31-.17-.24-.11-1-.47-.62-.28c-.39-.18-.81-.35-1.23-.52l-.43-.18c-.68-.27-1.29-.5-1.92-.73s-1.31-.46-2-.68l-.93-.28c-.5-.16-1-.32-1.52-.46l-1.8-.51-1.59-.4-1.48-.35-1.62-.37-2.18-.44-1.44-.27-1.34-.24-.49-.09-.82-.12-1.84-.29-1.32-.19-1.87-.25-.75-.09-.46,0c-1.33-.16-2.66-.3-4-.43l-.37,0c-1.25-.11-2.52-.21-3.79-.3l-.56,0-.63,0c-.76,0-1.53-.09-2.3-.12l-1.25-.07c-.92,0-1.84-.07-2.77-.09l-.8,0c-1.2,0-2.39-.05-3.59-.06H604l-1.55,0c-.91,0-1.81,0-2.72.06l-.88,0-3.45.15-.63,0c-1,.05-1.92.11-2.87.18l-1,.07c-1,.07-2,.16-3,.25l-.37,0c-1.47.13-2.84.28-4.2.44l-.76.09c-1.33.16-2.65.33-3.95.52l-.29,0-.62.1c-.72.1-1.44.22-2.15.33l-1,.17-2.39.43-.63.11-2.67.55-.29.06-2.33.53-.11,0-1.11.27-1.08.27-2.25.61-.51.14c-.71.2-1.39.41-2.06.62l-.1,0c-.81.25-1.53.49-2.23.73l-.93.33c-.51.18-1,.37-1.5.56l-1.52.59-.54.24-.85.36-.11.06c-.46,6.61-1.14,13.22-1.94,19.83l.49-.24,1.17-.54.88-.38c.43-.18.86-.36,1.31-.53l.82-.32c.5-.2,1-.38,1.54-.57l.75-.27c.78-.27,1.58-.54,2.41-.8l.11,0c.93-.29,1.8-.54,2.69-.8l2.3-.61.77-.19,1.56-.39,1.72-.39.11,5.82-.74.22.17,8.59-1.4-.27-1.49-.31-1.22-.26-1.25-.29-1-.25-1.38-.35-1.25-.34-1-.29-1.24-.38-1-.3c-.72-.24-1.43-.47-2.12-.72l-1.91-.72-.52-.22-1.29-.54-.34-.16c-.94,7.43-2,14.86-3.06,22.27l1.1.42c.74.26,1.5.52,2.28.77l1,.33,1.52.46,1.48.42.82.22.27.07.93.24.53.13,1.25.31,2.4.54.38.08Zm73.77-37.37,1.75.31,1.35.26,1.33.26,1.46.32,1.08.24,1.5.36,1,.26,1.49.41.93.25,1.56.48.77.23c.75.25,1.49.5,2.21.76s1.29.47,1.91.71l.53.23c.44.17.87.35,1.28.54l.65.29.91.43,1.73.84-2,1.11-1,.5-.8.39-1.18.54-.87.37c-.43.19-.87.36-1.32.54,0,0-.58.24-.81.32-.5.2-1,.38-1.55.57l-.74.27c-.78.27-1.59.54-2.42.8l-.11,0-2.69.8c-.79.22-1.6.43-2.41.64l-.8.2-1.63.4-1.38.31-1.15.25-1.16.25-.13-6.39.86-.27Z"/><path class="cls-15" d="M578.14,520.57c-1.41-.13-2.81-.28-4.19-.44l-.56-.06L573,520c-1-.12-2-.26-3-.4l-.55-.07L566,519l-1.55-.27-1.53-.28-.59-.11q1.49-10.89,3-21.76l.67.14,1.4.27-.17-8.59.74-.22-.11-5.82-.46.1q1.39-9.23,3-18.42l.21-1.23.9-.19.63-.11,2.39-.43,1-.17c.71-.11,1.43-.23,2.15-.33l.62-.1.29,0c1.3-.19,2.62-.36,3.95-.52l.76-.09c1.36-.16,2.73-.31,4.2-.44l.37,0c1-.09,2-.18,3-.25l1-.07c1-.07,1.91-.13,2.87-.18l.63,0,3.45-.15.88,0c.91,0,1.81-.05,2.72-.06l1.55,0h3.08c1.2,0,2.39,0,3.59.06l.8,0c.93,0,1.85.05,2.77.09l1.25.07c.77,0,1.54.08,2.3.12l.63,0,.56,0c1.27.09,2.54.19,3.79.3l.37,0c1.36.13,2.69.27,4,.43l.46,0,.75.09,1.87.25,1.32.19,1.84.29.82.12.49.09,1.34.24,1.44.27,2.18.44,1.62.37,1.48.35,1.59.4,1.31.37q-.43,9.21-1.5,18.36l-.52-.13-1.5-.36-1.08-.24-1.46-.32-1.33-.26-1.35-.26-1.75-.31.17,8.81-.86.27.13,6.39,1.16-.25,1.15-.25,1.38-.31,1.63-.4.8-.2,1.74-.46a190.64,190.64,0,0,1-5.6,23.75l-2.73.49-.45.08c-1.19.2-2.39.38-3.58.56l-.71.1c-1.38.2-2.76.38-4.16.55l-.93.11c-1.53.18-3.08.35-4.63.49l-.35,0-.81.06c-1,.09-1.9.17-2.86.24l-1.32.1-3.1.19-1,.05c-1.34.07-2.69.13-4,.18l-.93,0c-1,0-2.1.06-3.15.07l-1.34,0h-4.13c-1.28,0-2.55,0-3.82-.06h-.21c-1.34,0-2.67-.08-4-.14l-1.19,0-2.84-.16-.7,0-.49,0c-1.57-.11-3.12-.23-4.66-.37Z"/><path class="cls-16" d="M642.87,493.26c-26.93,7.56-67,7.14-89.47-.94s-18.9-20.76,8-28.32,67-7.14,89.48.94S669.8,485.7,642.87,493.26Zm-70.58-7.38-6,1.82,4.56,1.48,5.83-1.77a87.63,87.63,0,0,0,16,3.34l11.56-3.88-5.11-1.58c-.14,0-2.71.76-3.57.95A34.72,34.72,0,0,1,592,487a38.24,38.24,0,0,1-9.71-2.16c-3.12-1.12-4.3-2.62-.41-3.71,10.49-3,28.54,4.61,47.06-.59,8.9-2.5,7.7-6-.1-8.94l7-2.15L631.43,468l-7,2.15c-3.79-1.11-8.33-2.13-12.32-3l-11.22,3.7,5.17,1.65,4.28-1.2c.16-.05.55-.11,1-.2a24.47,24.47,0,0,1,8.17,1.57c3.39,1.21,3.79,2.68.37,3.63-9.46,2.66-28.29-4.71-46,.26-9.39,2.64-8.6,6.33-1.56,9.36"/><path class="cls-17" d="M590.64,474.8a54.87,54.87,0,0,0-16.79,1.72c-9.39,2.64-8.6,6.33-1.56,9.36l-6,1.82,4.56,1.48,5.83-1.77a87.63,87.63,0,0,0,16,3.34l11.56-3.88-5.11-1.58c-.14,0-2.71.76-3.57.95A34.72,34.72,0,0,1,592,487a38.24,38.24,0,0,1-9.71-2.16c-3.12-1.12-4.3-2.62-.41-3.71,9.38-2.63,24.8,3.12,41.2.65A191.78,191.78,0,0,0,662.33,484c-3.61,3.45-10.13,6.68-19.46,9.3-26.93,7.56-67,7.14-89.47-.94-21.73-7.81-19.11-19.91,5.39-27.54C569.28,468.52,579.91,471.92,590.64,474.8Z"/><path class="cls-18" d="M648.79,495.39c-30.84,8.66-76.72,8.18-102.48-1.08s-21.65-23.77,9.2-32.44S632.23,453.69,658,463,679.63,486.73,648.79,495.39Zm-95.39-3.07c22.49,8.08,62.54,8.5,89.47.94s30.52-20.24,8-28.32-62.55-8.5-89.48-.94-30.51,20.24-8,28.32"/><path class="cls-19" d="M554.32,465.26c-9.33,3.48-15.08,7.8-16.39,12.45-.79,2.79.05,5.63,2.43,8.2,2.55,2.76,6.83,5.22,12.71,7.34,22.61,8.12,63,8.55,90.06,1,12.62-3.55,20.67-8.38,22.89-13.69,2.44-.11,4.87-.27,7.3-.44-2.32,5.36-11.23,10.55-24.79,14.36-30.63,8.6-76.33,8.13-101.89-1.05-6.41-2.31-11-4.95-13.71-7.85-2.23-2.41-3-4.9-2.3-7.39,1.42-5,8.79-10,20.44-13.88Z"/><path class="cls-20" d="M635.92,469.42,631.43,468l-7,2.15c-3.79-1.11-8.33-2.13-12.32-3l-11.22,3.7,5.17,1.65,4.28-1.2c.16-.05.55-.11,1-.2a24.47,24.47,0,0,1,8.17,1.57c3.39,1.21,3.79,2.68.37,3.63-9.46,2.66-28.29-4.71-46,.26-9.39,2.64-8.6,6.33-1.56,9.36l-6,1.82,4.56,1.48,5.83-1.77a87.63,87.63,0,0,0,16,3.34l11.56-3.88-5.11-1.58c-.14,0-2.71.76-3.57.95A34.72,34.72,0,0,1,592,487a38.24,38.24,0,0,1-9.71-2.16c-3.12-1.12-4.3-2.62-.41-3.71,10.49-3,28.54,4.61,47.06-.59,8.9-2.5,7.7-6-.1-8.94Z"/><path class="cls-21" d="M603,476.86c3.84,1.67,7.7,3.26,11.61,4.54a128.94,128.94,0,0,1-15.41-1.11c-6.88-.78-12.82-1.45-17.52-.14-1.86.53-2.85,1.2-3.11,2.12a1.86,1.86,0,0,0,.53,1.81,7.52,7.52,0,0,0,2.93,1.66A38.66,38.66,0,0,0,592,488h.11l.11,0c1.34-.24,3-.55,3.59-.75s2.22-.58,3.28-.88l1.92.59-8.46,2.85A87.12,87.12,0,0,1,577,486.47l-.29-.09-5.83,1.77-1.28-.42,5.57-1.69L572.68,485a12.77,12.77,0,0,1-4.15-2.57c-.79-.85-.64-1.35-.6-1.52.16-.55,1.07-2,6.18-3.42C584,474.71,594,475.81,603,476.86Z"/><path class="cls-22" d="M576,488.08a87.61,87.61,0,0,0,15.95,3.34l8-2.69,2.79.86-11.56,3.89a87.63,87.63,0,0,1-16-3.34l-5.83,1.77-4.56-1.48,3.69-1.12,1.65.54Z"/><path class="cls-22" d="M635.92,469.42l-1.5,2.73-3.8,1.15a25,25,0,0,0-2.48-1.06Z"/><path class="cls-22" d="M649.4,467.67c-22.49-8.08-62.55-8.5-89.47-.94-12,3.38-19.39,7.78-21.86,12.34,1.14-5.28,8.79-10.51,22.63-14.4,26.93-7.56,67-7.14,89.48.94,12.43,4.47,16.88,10.34,13.83,16C665.08,476.61,660.33,471.6,649.4,467.67Z"/><path class="cls-22" d="M627.47,483.23c-18.51,5.2-36.57-2.35-47.06.6a8.81,8.81,0,0,0-1.18.41c-1-.85-.61-1.75,2-2.47,10.49-2.95,28.54,4.6,47.06-.6a13.42,13.42,0,0,0,5.37-2.48C634,480.33,632.15,481.92,627.47,483.23Z"/><path class="cls-22" d="M566.23,482.18c.26,1.48,2.15,3,5.34,4.37l-3.06.93C565.54,485.75,564.58,483.89,566.23,482.18Z"/><path class="cls-22" d="M609.58,471.92l1-.19a24.75,24.75,0,0,1,8.18,1.56c3,1.07,3.63,2.31,1.49,3.25a7.16,7.16,0,0,0-2.27-1.19,24.7,24.7,0,0,0-8.17-1.56c-.46.08-.86.15-1,.19l-4.28,1.21-5.17-1.65,1.5-2.73,4.44,2.32Z"/><text class="cls-23" transform="translate(369.53 350.55)"><tspan class="cls-24" x="24.61" y="0"></tspan><tspan class="cls-25" x="56.7" y="0"></tspan><tspan class="cls-26" x="86.8" y="0"></tspan><tspan class="cls-27" x="118.1" y="0"></tspan><tspan x="139.09" y="0"></tspan></text><text class="cls-28" transform="translate(388.41 380.74)"></text><path class="cls-29" d="M436.94,268c6.27,12,17.06,20.57,30.13,22.19,11.39,1.41,21.13-2.85,29.06-10.73a5.09,5.09,0,0,0-3.54-8.7c-9.43-.11-19.8-3-25.3-8.7-8.5-8.87-4.92-28.62.75-39.07.43-.8,1.64-2.05,1.93-1.91,5.07,2.35,10,5,15.07,7.32,1.66.75,4.6,1.4,5.41.58,1.21-1.23,2-4.24,1.28-5.72-1.77-3.76-4.57-7-6.71-10.65-1-1.72-5-3.91.16-5.63.3-.1.72-.7.65-.94a1.43,1.43,0,0,0-.94-.84c-4.69-.7-6.51-4.08-8.5-7.95-3.61-7-11.38-12.94-15.34-16.1,4.26,5.23,9.4,11.62,10.4,17.08-.27-.24-18.58-16.29-19-16.36.22.34,9.18,13.45,13.31,19.76a2.22,2.22,0,0,1-2,2.75c-2.09.3-10,4.67-3.48,6.36.06,0-11.78,12-16.22,22a77,77,0,0,0-6.34,21.41C437.07,260,437.15,264.42,436.94,268Z"/><text class="cls-30" transform="translate(406.39 444.39)">O<tspan class="cls-31" x="32.42" y="0">nline</tspan></text></g></svg>