<svg width="198" height="40" viewBox="0 0 198 40" fill="none" xmlns="http://www.w3.org/2000/svg">
<mask id="mask0" mask-type="alpha" maskUnits="userSpaceOnUse" x="0" y="0" width="198" height="40">
<rect width="198" height="40" fill="#C4C4C4"/>
</mask>
<g mask="url(#mask0)">
<path d="M189.434 15.3534C184.866 15.3534 181.188 18.5365 181.188 23.4348C181.188 28.3331 184.866 31.5162 189.434 31.5162C194.003 31.5162 197.681 28.3331 197.681 23.4348C197.681 18.5365 194.003 15.3534 189.434 15.3534ZM189.434 27.3271C187.241 27.3271 185.657 25.7768 185.657 23.4183C185.657 21.0599 187.241 19.5095 189.434 19.5095C191.628 19.5095 193.211 21.0599 193.211 23.4183C193.211 25.7933 191.628 27.3271 189.434 27.3271ZM142.479 15.3534C137.911 15.3534 134.233 18.5365 134.233 23.4348C134.233 28.3331 137.911 31.5162 142.479 31.5162C147.048 31.5162 150.726 28.3331 150.726 23.4348C150.726 18.5365 147.048 15.3534 142.479 15.3534ZM142.479 27.3271C140.286 27.3271 138.703 25.7768 138.703 23.4183C138.703 21.0599 140.286 19.5095 142.479 19.5095C144.673 19.5095 146.256 21.0599 146.256 23.4183C146.256 25.7933 144.689 27.3271 142.479 27.3271ZM111.869 15.6502H123.661V31.2194H119.225V19.691H115.745L115.382 24.9851C115.085 28.2012 114.986 31.2194 110.451 31.2194H108.488L109.032 27.426C111.539 27.4096 111.292 26.8983 111.869 15.6502ZM91.6323 15.3534C87.0638 15.3534 83.386 18.5365 83.386 23.4348C83.386 28.3331 87.0638 31.5162 91.6323 31.5162C96.2008 31.5162 99.8787 28.3331 99.8787 23.4348C99.8787 18.5365 96.2008 15.3534 91.6323 15.3534ZM91.6323 27.3271C89.4388 27.3271 87.8555 25.7768 87.8555 23.4183C87.8555 21.0599 89.4388 19.5095 91.6323 19.5095C93.8259 19.5095 95.4092 21.0599 95.4092 23.4183C95.4092 25.7933 93.8424 27.3271 91.6323 27.3271ZM42.6325 23.2369C42.6325 26.5519 44.826 26.9478 47.2999 26.9478C48.6523 26.9478 50.0872 26.6839 51.2087 26.387L51.2747 30.5267C49.8233 31.0215 48.0586 31.3183 46.3103 31.3183C41.8078 31.3183 37.998 28.9599 37.998 23.3688C37.998 18.7344 41.0492 15.3534 46.3103 15.3534C48.1245 15.3534 50.0542 15.7162 51.6045 16.5409L50.1202 20.3507C49.0976 19.9878 47.6957 19.7239 46.4753 19.7239C43.8859 19.7239 42.6325 20.8949 42.6325 23.2369ZM61.4177 15.6502H74.8757L74.0511 19.691H70.1423V31.2194H65.7058V19.691H61.4012V15.6502H61.4177ZM172.925 15.6502L172.1 19.691H168.192V31.2194H163.738V19.691H159.83L159.005 15.6502H172.925Z" fill="black"/>
<mask id="mask1" mask-type="alpha" maskUnits="userSpaceOnUse" x="-1" y="9" width="31" height="31">
<circle cx="14.9743" cy="24.2244" r="15.0084" fill="#C4C4C4"/>
</mask>
<g mask="url(#mask1)">
<path d="M41.3954 30.6074C41.148 25.7255 39.4823 21.0911 36.5796 17.1823C33.7263 13.356 29.867 10.4862 25.4305 8.88645C24.2595 8.45764 23.039 8.12778 21.8186 7.89688C20.4332 7.633 18.9983 7.50106 17.547 7.48457H17.4315C11.0488 7.48457 5.02899 10.008 0.509988 14.5764C-4.02551 19.1614 -6.54889 25.2637 -6.58188 31.7453C-6.58188 31.9433 -6.58188 32.1412 -6.58188 32.3391C-6.46643 38.7218 -3.92655 44.7086 0.542973 49.1946C5.02899 53.6972 10.9829 56.1876 17.2831 56.2205H17.415C23.6658 56.2205 29.5702 53.7961 34.0727 49.3926C38.5587 45.0055 41.148 39.1176 41.3789 32.8174C41.3954 32.6854 41.3954 32.537 41.3954 32.3886C41.3954 32.2566 41.4119 32.1247 41.4119 31.9927V31.7618C41.4284 31.4155 41.4119 31.0691 41.3954 30.6074ZM-5.42739 32.3061C-5.42739 32.1247 -5.42739 31.9433 -5.42739 31.7453C-5.36142 18.98 4.86407 8.67204 17.4315 8.67204C17.4645 8.67204 17.514 8.67204 17.547 8.67204C18.9324 8.67204 20.3012 8.80398 21.6207 9.06787C21.6207 9.06787 21.6207 9.06787 21.6372 9.06787C21.3898 11.047 20.5486 18.0069 20.3507 19.4583C20.0209 21.8497 18.6355 22.3775 17.2996 23.1362C15.4029 24.1917 14.133 24.9174 11.3127 23.8288C6.99162 22.1631 4.66615 21.1075 2.12627 20.2334C1.21918 19.9201 0.114163 20.2664 -0.215691 21.157C-0.545546 22.0641 -0.248676 22.9547 0.658423 23.3011C0.658423 23.3011 5.30937 25.0328 7.18954 25.8904C10.8014 27.5397 13.1929 27.952 14.3804 30.8053C14.9906 32.2401 16.1781 35.2913 16.1451 36.6107C16.1121 38.5568 15.6008 44.3788 15.6008 44.3788C15.5349 45.3353 15.1885 46.5558 14.7762 47.4299L11.4776 54.2579C1.86239 51.6356 -5.22948 42.812 -5.42739 32.3061ZM40.2904 31.9762C40.2904 32.1082 40.2904 32.2236 40.2904 32.3556C40.2904 32.4875 40.2904 32.6195 40.2739 32.7349C39.8286 45.1374 29.7681 55.0496 17.448 55.0496C17.415 55.0496 17.3655 55.0496 17.3326 55.0496C16.5574 55.0496 15.7987 55.0001 15.0401 54.9176L18.5035 48.6999C18.9818 47.8587 19.3117 47.0011 19.4271 46.0445C19.5756 44.7911 20.0703 41.0637 20.0703 41.0637C20.1363 40.1072 20.6311 39.0681 21.5382 38.7712L23.1215 38.3424C24.0286 38.0291 24.7543 38.3424 25.1996 39.2001C25.4964 39.7608 26.3376 41.476 26.6839 42.1687C26.9148 42.614 26.8324 43.0594 26.6015 43.3232C25.4305 44.6756 24.6883 45.4838 23.6823 46.6383C23.0061 47.4134 22.4618 48.5844 23.5833 49.574C24.6883 50.547 25.7438 49.508 26.4035 48.8483C27.2447 47.9907 28.5476 46.4074 29.3557 45.4508C30.0649 44.6097 30.4773 43.9994 30.5762 42.9769C30.6092 42.5646 30.5762 42.1193 30.4278 41.6575C30.1144 40.6514 27.6735 34.7965 26.0077 30.1785C24.5564 26.1873 23.8142 22.0311 24.2595 17.809L25.0676 9.97497C25.0841 9.97497 25.0841 9.97497 25.1006 9.99146C33.6274 13.0591 39.8286 21.1075 40.3069 30.6733C40.3234 31.0362 40.3399 31.399 40.3399 31.7618V31.9762H40.2904Z" fill="black"/>
<path d="M13.9681 21.1899C16.376 20.959 18.1573 18.7819 17.9264 16.3245C17.6955 13.8671 15.5349 12.0859 13.127 12.3168C10.719 12.5477 8.93783 14.7247 9.18522 17.1821C9.39962 19.6396 11.5602 21.4373 13.9681 21.1899Z" fill="black"/>
</g>
<path d="M26.8821 7.68422L23.9958 9.18506C23.699 9.33349 23.3361 9.21805 23.1877 8.92118L19.8067 2.37357C19.6582 2.0767 19.7737 1.71386 20.0706 1.56543L22.9568 0.0645882C23.2537 -0.0838462 23.6165 0.0316025 23.7649 0.328471L27.1459 6.87608C27.2944 7.17295 27.1789 7.5193 26.8821 7.68422Z" fill="black"/>
<path d="M20.4785 38.1448C28.1943 35.2431 32.0969 26.636 29.1952 18.9202C26.2936 11.2045 17.6865 7.30185 9.97068 10.2035C2.2549 13.1052 -1.64771 21.7123 1.25395 29.4281C4.15561 37.1439 12.7627 41.0465 20.4785 38.1448Z" stroke="black" stroke-width="0.824636" stroke-miterlimit="10"/>
<path d="M17.9924 16.6232L16.607 16.8871L16.3926 16.3923L17.811 15.5182C17.745 15.3202 17.6791 15.1223 17.5966 14.9244L16.0298 15.8975C15.7989 15.7656 15.502 15.7326 15.1887 15.7985L13.4404 16.2603L11.8736 17.2169C11.6098 17.3653 11.4118 17.6127 11.3624 17.8766L9.38324 18.256C9.44921 18.4539 9.54817 18.6518 9.63063 18.8332L11.4613 18.4869L11.5273 18.6518L10.0924 19.5424C10.2244 19.7073 10.3728 19.8557 10.5212 20.0042L11.7747 19.229L11.9726 19.6743C12.1705 20.1196 12.5498 20.0702 13.1271 20.1361L15.2217 20.1856L16.4421 18.7177C16.805 18.2724 17.0853 18.0086 16.9039 17.5633L16.8709 17.4643L17.9759 17.2499C17.9924 17.052 18.0089 16.8376 17.9924 16.6232Z" fill="#B3E0F9"/>
</g>
</svg>
