<svg id="Layer_1" data-name="Layer 1" xmlns="http://www.w3.org/2000/svg" xmlns:xlink="http://www.w3.org/1999/xlink" viewBox="0 0 368.69 368.69"><defs><style>.cls-1{fill:#fe9a53;}.cls-2{fill:#e37f36;}.cls-3,.cls-7{fill:#bd7532;}.cls-4{fill:url(#linear-gradient);}.cls-5{fill:#d48337;}.cls-6,.cls-9{fill:#fff;}.cls-7,.cls-9{font-size:48.23px;font-family:MullerRegular, Muller;}.cls-8{letter-spacing:-0.03em;}</style><linearGradient id="linear-gradient" x1="232.07" y1="104.34" x2="413.37" y2="374.28" gradientTransform="translate(260.44 -157.44) rotate(45)" gradientUnits="userSpaceOnUse"><stop offset="0" stop-color="#e37f36"/><stop offset="0.34" stop-color="#fe9a53"/><stop offset="0.67" stop-color="#fed74b"/><stop offset="1" stop-color="#fe9a53"/></linearGradient></defs><path class="cls-1" d="M391.85,404.71c-9.46,11.59-28.79,17.11-42.94,12.29s-37.19-4.45-51.18.85-33.48.44-43.33-10.83-30-22.44-44.74-24.84-29.22-16.37-32.11-31.05-14.75-34.43-26.34-43.89-17.12-28.79-12.28-42.94,4.44-37.19-.86-51.18-.43-33.49,10.83-43.34,22.45-30,24.85-44.74,16.37-29.21,31-32.11,34.43-14.75,43.89-26.33,28.79-17.11,42.95-12.28,37.18,4.44,51.17-.87,33.49-.43,43.34,10.84,30,22.44,44.74,24.84S460.1,105.51,463,120.18s14.75,34.43,26.33,43.89,17.12,28.79,12.29,43-4.45,37.18.86,51.17.43,33.48-10.84,43.33-22.44,30-24.84,44.75-16.37,29.21-31.05,32.11S401.31,393.13,391.85,404.71Z" transform="translate(-135.92 -51.31)"/><circle class="cls-2" cx="320.27" cy="235.66" r="168.73" transform="translate(-58.53 499.18) rotate(-88.7)"/><path class="cls-3" d="M486.46,235.66A166.2,166.2,0,1,1,320.27,69.46,166.2,166.2,0,0,1,486.46,235.66Z" transform="translate(-135.92 -51.31)"/><circle class="cls-1" cx="320.27" cy="235.66" r="160.15" transform="matrix(0.02, -1, 1, 0.02, -58.53, 499.18)"/><circle class="cls-4" cx="320.27" cy="235.66" r="156.93" transform="translate(-208.75 244.17) rotate(-45)"/><path class="cls-5" d="M467.12,245.13l-5.47-3.24a1,1,0,0,0-1,0l-5.48,3.25a1,1,0,0,1-1.53-1.11l1.39-6.22a1,1,0,0,0-.32-1l-4.78-4.21a1,1,0,0,1,.58-1.79l6.33-.6a1,1,0,0,0,.85-.62l2.53-5.85a1,1,0,0,1,1.89,0l2.53,5.85a1,1,0,0,0,.84.62l6.34.59a1,1,0,0,1,.59,1.79l-4.78,4.21a1,1,0,0,0-.32,1l1.39,6.21A1,1,0,0,1,467.12,245.13Z" transform="translate(-135.92 -51.31)"/><path class="cls-3" d="M192.21,245l-5.48-3.24a1,1,0,0,0-1,0L180.21,245a1,1,0,0,1-1.53-1.11l1.39-6.21a1,1,0,0,0-.33-1l-4.78-4.2a1,1,0,0,1,.58-1.8l6.34-.59a1,1,0,0,0,.85-.62l2.52-5.85a1,1,0,0,1,1.89,0l2.53,5.85a1,1,0,0,0,.85.61l6.34.59a1,1,0,0,1,.58,1.8l-4.78,4.21a1,1,0,0,0-.32,1l1.4,6.21A1,1,0,0,1,192.21,245Z" transform="translate(-135.92 -51.31)"/><path class="cls-6" d="M190.21,244l-5.48-3.24a1,1,0,0,0-1,0L178.21,244a1,1,0,0,1-1.53-1.11l1.39-6.21a1,1,0,0,0-.33-1l-4.78-4.2a1,1,0,0,1,.58-1.8l6.34-.59a1,1,0,0,0,.85-.62l2.52-5.85a1,1,0,0,1,1.89,0l2.53,5.85a1,1,0,0,0,.85.61l6.34.59a1,1,0,0,1,.58,1.8l-4.78,4.21a1,1,0,0,0-.32,1l1.4,6.21A1,1,0,0,1,190.21,244Z" transform="translate(-135.92 -51.31)"/><path class="cls-6" d="M465.58,244l-5.48-3.24a1,1,0,0,0-1.05,0L453.57,244a1,1,0,0,1-1.52-1.11l1.39-6.21a1,1,0,0,0-.33-1l-4.78-4.2a1,1,0,0,1,.58-1.8l6.34-.59a1,1,0,0,0,.85-.62l2.52-5.85a1,1,0,0,1,1.89,0l2.53,5.85a1,1,0,0,0,.85.61l6.34.59a1,1,0,0,1,.58,1.8L466,235.68a1,1,0,0,0-.32,1l1.4,6.21A1,1,0,0,1,465.58,244Z" transform="translate(-135.92 -51.31)"/><text class="cls-7" transform="translate(89.58 172.09)">ВЫБОР <tspan x="-23.97" y="57.88">ИГРО</tspan><tspan class="cls-8" x="111.9" y="57.88">К</tspan><tspan x="142.47" y="57.88">ОВ</tspan></text><text class="cls-9" transform="translate(88.58 170.09)">ВЫБОР <tspan x="-23.97" y="57.88">ИГРО</tspan><tspan class="cls-8" x="111.9" y="57.88">К</tspan><tspan x="142.47" y="57.88">ОВ</tspan></text></svg>